<?xml version="1.0" standalone="no"?>
<!DOCTYPE svg PUBLIC "-//W3C//DTD SVG 1.1//EN" "http://www.w3.org/Graphics/SVG/1.1/DTD/svg11.dtd" >
<svg xmlns="http://www.w3.org/2000/svg">
<metadata>Generated by IcoMoon</metadata>
<defs>
<font id="icomoon" horiz-adv-x="1024">
<font-face units-per-em="1024" ascent="960" descent="-64" />
<missing-glyph horiz-adv-x="1024" />
<glyph unicode="&#x20;" horiz-adv-x="512" d="" />
<glyph unicode="&#xe007;" glyph-name="icon-lock" d="M512 896q69.667 0 128.5-34.333t93.167-93.167 34.333-128.5v-170.667h85.333q53 0 90.5-37.5t37.5-90.5v-256q0-53-37.5-90.5t-90.5-37.5h-682.667q-53 0-90.5 37.5t-37.5 90.5v256q0 53 37.5 90.5t90.5 37.5h85.333v170.667q0 69.667 34.333 128.5t93.167 93.167 128.5 34.333zM853.333 384h-682.667q-17.667 0-30.167-12.5t-12.5-30.167v-256q0-17.667 12.5-30.167t30.167-12.5h682.667q17.667 0 30.167 12.5t12.5 30.167v256q0 17.667-12.5 30.167t-30.167 12.5zM512 810.667q-70.667 0-120.667-50t-50-120.667v-170.667h341.333v170.667q0 70.667-50 120.667t-120.667 50z" />
<glyph unicode="&#xe014;" glyph-name="icon-clock-custom" d="M512 896q95.667 0 182.5-37.167t149.667-100 100-149.667 37.167-182.5-37.167-182.5-100-149.667-149.667-100-182.5-37.167-182.5 37.167-149.667 100-100 149.667-37.167 182.5 37.167 182.5 100 149.667 149.667 100 182.5 37.167zM512 810.667q-78 0-149.167-30.5t-122.5-81.833-81.833-122.5-30.5-149.167 30.5-149.167 81.833-122.5 122.5-81.833 149.167-30.5 149.167 30.5 122.5 81.833 81.833 122.5 30.5 149.167-30.5 149.167-81.833 122.5-122.5 81.833-149.167 30.5zM512 725.334q17.667 0 30.167-12.5t12.5-30.167v-238.333l115.667-115.333q12.333-12.333 12.333-30.333t-12.333-30.333-30.333-12.333-30.333 12.333l-128 128q-12.333 12.333-12.333 30.333v256q0 17.667 12.5 30.167t30.167 12.5z" />
<glyph unicode="&#xe114;" glyph-name="icon-add-custom" d="M512 938.667q21.2 0 36.2-15t15-36.2v-409.599h409.599q21.2 0 36.2-15t15-36.2-15-36.2-36.2-15h-409.599v-409.599q0-21.2-15-36.2t-36.2-15-36.2 15-15 36.2v409.599h-409.599q-21.2 0-36.2 15t-15 36.2 15 36.2 36.2 15h409.599v409.599q0 21.2 15 36.2t36.2 15z" />
<glyph unicode="&#xe116;" glyph-name="icon-bingo-custom" d="M972.801 785.068q22 0 36.6-14.6t14.6-36.6q0-21.6-14.8-36.4l-614.401-614.401q-14.8-14.8-36.4-14.8t-36.4 14.8l-307.2 307.2q-14.8 14.8-14.8 36.4 0 22 14.6 36.6t36.6 14.6q21.6 0 36.4-14.8l270.801-271.2 578.001 578.401q14.8 14.8 36.4 14.8z" />
<glyph unicode="&#xe117;" glyph-name="icon-close-custom" d="M960.001 960q27.5 0 45.75-18.251t18.251-45.75q0-27-18.5-45.5l-403.001-402.5 403.001-402.5q18.5-18.5 18.5-45.5 0-27.5-18.251-45.75t-45.75-18.251q-27 0-45.5 18.5l-402.5 403.001-402.5-403.001q-18.5-18.5-45.5-18.5-27.5 0-45.75 18.251t-18.251 45.75q0 27 18.5 45.5l403.001 402.5-403.001 402.5q-18.5 18.5-18.5 45.5 0 27.5 18.251 45.75t45.75 18.251q27 0 45.5-18.5l402.5-403.001 402.5 403.001q18.5 18.5 45.5 18.5z" />
<glyph unicode="&#xe123;" glyph-name="icon-exit" d="M1021.818 426.667q0-19.636-13.454-33.091l-232.727-232.727q-13.454-13.454-33.091-13.454-20 0-33.273 13.273t-13.273 33.273q0 19.636 13.454 33.091l153.455 153.090h-539.272q-19.273 0-32.909 13.636t-13.636 32.909 13.636 32.909 32.909 13.636h539.272l-153.455 153.090q-13.454 14.182-13.454 33.091 0 19.273 13.636 32.909t32.909 13.636q18.909 0 33.091-13.454l232.727-232.727q13.454-13.454 13.454-33.091zM370.182-38.788q0-19.273-13.636-32.909t-32.909-13.636h-186.182q-58.181 0-98.545 40.364-41.091 41.091-41.091 98.182v745.818q0 57.091 40.727 98.909 41.818 40.727 98.909 40.727h186.182q19.273 0 32.909-13.636t13.636-32.909-13.636-32.909-32.909-13.636h-186.182q-19.273 0-32.909-13.636t-13.636-32.909v-745.818q0-18.909 13.636-32.182t32.909-13.273h186.182q19.273 0 32.909-13.636t13.636-32.909z" />
<glyph unicode="&#xe900;" glyph-name="icon-patient-custom" d="M512 846.222c96.711 0 170.667-73.956 170.667-170.667s-73.956-170.667-170.667-170.667-170.667 73.956-170.667 170.667 73.956 170.667 170.667 170.667zM512 903.111c-125.156 0-227.556-102.4-227.556-227.556s102.4-227.556 227.556-227.556 227.556 102.4 227.556 227.556-102.4 227.556-227.556 227.556v0zM512 345.6c176.356 0 324.267-125.156 341.333-284.444h-682.667c17.067 159.289 164.978 284.444 341.333 284.444zM512 402.489c-221.867 0-398.222-164.978-398.222-375.467 0-5.689 0-17.067 0-22.756h796.444c0 5.689 0 17.067 0 22.756 0 210.489-176.356 375.467-398.222 375.467v0z" />
<glyph unicode="&#xe901;" glyph-name="icon-education-custom" d="M472.178 686.933c11.378-5.689 28.444-5.689 39.822-5.689s28.444 0 39.822 5.689l358.4 136.533v-204.8h56.889v204.8c0 34.133-28.444 56.889-56.889 56.889-5.689 0-11.378 0-22.756-5.689l-352.711-136.533c-11.378 0-17.067 0-22.756 0s-11.378 0-22.756 5.689l-352.711 130.844c-11.378 0-17.067 5.689-22.756 5.689-28.444 0-56.889-22.756-56.889-56.889v-204.8h56.889v204.8l358.4-136.533zM910.222 334.222v-130.844l-398.222-147.911-398.222 147.911v130.844h-56.889v-130.844c0-22.756 17.067-45.511 34.133-51.2l398.222-147.911c5.689 0 11.378-5.689 22.756-5.689s11.378 0 22.756 5.689l398.222 147.911c22.756 5.689 34.133 28.444 34.133 51.2v130.844h-56.889zM284.444 675.556h56.889v-170.667h-56.889v170.667zM227.556 618.667h170.667v-56.889h-170.667v56.889zM113.778 391.111v0c-34.133 0-56.889 22.756-56.889 56.889v56.889c0 34.133 22.756 56.889 56.889 56.889v0c34.133 0 56.889-22.756 56.889-56.889v-56.889c0-34.133-22.756-56.889-56.889-56.889zM910.222 391.111v0c-34.133 0-56.889 22.756-56.889 56.889v56.889c0 34.133 22.756 56.889 56.889 56.889v0c34.133 0 56.889-22.756 56.889-56.889v-56.889c0-34.133-22.756-56.889-56.889-56.889z" />
<glyph unicode="&#xe902;" glyph-name="icon-assistant-custom" d="M113.778 49.778v739.556h682.667v-341.333c17.067 0 39.822-5.689 56.889-5.689v347.022c0 34.133-22.756 56.889-56.889 56.889h-682.667c-34.133 0-56.889-22.756-56.889-56.889v-739.556c0-34.133 22.756-56.889 56.889-56.889h682.667c-56.889 0-108.089 22.756-147.911 56.889h-534.756zM711.111 448c108.089 0 199.111-91.022 199.111-199.111s-91.022-199.111-199.111-199.111-199.111 91.022-199.111 199.111 91.022 199.111 199.111 199.111zM711.111 504.889c-142.222 0-256-113.778-256-256s113.778-256 256-256 256 113.778 256 256-113.778 256-256 256v0zM170.667 903.111h56.889v-170.667h-56.889v170.667zM398.222 903.111h56.889v-170.667h-56.889v170.667zM625.778 903.111h56.889v-170.667h-56.889v170.667zM682.667 391.111h56.889v-170.667h-56.889v170.667zM694.044 277.333h159.289v-56.889h-159.289v56.889zM284.444 618.667c0-31.419-25.47-56.889-56.889-56.889s-56.889 25.47-56.889 56.889c0 31.419 25.47 56.889 56.889 56.889s56.889-25.47 56.889-56.889zM512 618.667c0-31.419-25.47-56.889-56.889-56.889s-56.889 25.47-56.889 56.889c0 31.419 25.47 56.889 56.889 56.889s56.889-25.47 56.889-56.889zM284.444 345.6c0-31.419-25.47-56.889-56.889-56.889s-56.889 25.47-56.889 56.889c0 31.419 25.47 56.889 56.889 56.889s56.889-25.47 56.889-56.889zM750.933 618.667c0-31.419-25.47-56.889-56.889-56.889s-56.889 25.47-56.889 56.889c0 31.419 25.47 56.889 56.889 56.889s56.889-25.47 56.889-56.889z" />
<glyph unicode="&#xe903;" glyph-name="icon-more-custom" d="M398.222 846.222v-284.444h-284.444v284.444h284.444zM398.222 903.111h-284.444c-34.133 0-56.889-22.756-56.889-56.889v-284.444c0-34.133 22.756-56.889 56.889-56.889h284.444c34.133 0 56.889 22.756 56.889 56.889v284.444c0 34.133-22.756 56.889-56.889 56.889v0zM910.222 846.222v-284.444h-284.444v284.444h284.444zM910.222 903.111h-284.444c-34.133 0-56.889-22.756-56.889-56.889v-284.444c0-34.133 22.756-56.889 56.889-56.889h284.444c34.133 0 56.889 22.756 56.889 56.889v284.444c0 34.133-22.756 56.889-56.889 56.889v0zM398.222 334.222v-284.444h-284.444v284.444h284.444zM398.222 391.111h-284.444c-34.133 0-56.889-22.756-56.889-56.889v-284.444c0-34.133 22.756-56.889 56.889-56.889h284.444c34.133 0 56.889 22.756 56.889 56.889v284.444c0 34.133-22.756 56.889-56.889 56.889v0zM910.222 334.222v-284.444h-284.444v284.444h284.444zM910.222 391.111h-284.444c-34.133 0-56.889-22.756-56.889-56.889v-284.444c0-34.133 22.756-56.889 56.889-56.889h284.444c34.133 0 56.889 22.756 56.889 56.889v284.444c0 34.133-22.756 56.889-56.889 56.889v0z" />
<glyph unicode="&#xe904;" glyph-name="icon-setup-custom" d="M665.6 817.778c0 0 5.689 0 0 0l85.333-45.511c5.689-5.689 5.689-11.378 5.689-17.067l-45.511-79.644c-45.511-73.956 11.378-170.667 96.711-170.667h91.022c5.689 0 11.378-5.689 11.378-11.378v-91.022c0-5.689-5.689-11.378-11.378-11.378h-91.022c-85.333 0-142.222-96.711-96.711-170.667l45.511-79.644c5.689-5.689 0-11.378-5.689-17.067l-79.644-45.511c0 0-5.689 0-5.689 0-5.689 0-5.689 0-11.378 5.689l-45.511 79.644c-22.756 39.822-62.578 56.889-96.711 56.889-39.822 0-73.956-17.067-96.711-56.889l-45.511-79.644c0-5.689-5.689-5.689-11.378-5.689 0 0-5.689 0-5.689 0l-79.644 45.511c-5.689 5.689-5.689 11.378-5.689 17.067l45.511 79.644c45.511 73.956-11.378 170.667-96.711 170.667h-91.022c-5.689 0-11.378 5.689-11.378 11.378v91.022c0 5.689 5.689 11.378 11.378 11.378h91.022c85.333 0 142.222 96.711 96.711 170.667l-45.511 79.644c-5.689 5.689 0 11.378 5.689 17.067l79.644 45.511c0 0 5.689 0 5.689 0 5.689 0 5.689 0 11.378-5.689l45.511-79.644c22.756-39.822 56.889-56.889 96.711-56.889s73.956 17.067 96.711 56.889l45.511 79.644c5.689 5.689 5.689 5.689 11.378 5.689zM665.6 874.667c-22.756 0-45.511-11.378-56.889-34.133l-45.511-79.644c-17.067-28.444-39.822-28.444-51.2-28.444s-34.133 0-51.2 28.444l-45.511 79.644c-11.378 22.756-34.133 34.133-56.889 34.133-11.378 0-22.756-5.689-34.133-11.378l-79.644-45.511c-34.133-17.067-45.511-56.889-22.756-91.022l45.511-79.644c17.067-22.756 5.689-45.511 0-56.889s-22.756-28.444-51.2-28.444h-91.022c-39.822 0-68.267-28.444-68.267-68.267v-91.022c0-39.822 28.444-68.267 68.267-68.267h91.022c28.444 0 45.511-17.067 51.2-28.444 5.689-5.689 17.067-28.444 0-56.889l-45.511-79.644c-11.378-17.067-11.378-34.133-5.689-51.2s17.067-34.133 34.133-39.822l79.644-45.511c11.378-5.689 22.756-11.378 34.133-11.378 22.756 0 45.511 11.378 56.889 34.133l45.511 79.644c11.378 28.444 34.133 28.444 45.511 28.444s34.133 0 51.2-28.444l45.511-79.644c11.378-22.756 34.133-34.133 56.889-34.133 11.378 0 22.756 5.689 34.133 11.378l79.644 45.511c34.133 17.067 45.511 62.578 22.756 91.022l-45.511 79.644c-17.067 22.756-5.689 45.511 0 56.889 5.689 5.689 17.067 28.444 51.2 28.444h91.022c39.822 0 68.267 28.444 68.267 68.267v91.022c0 39.822-28.444 68.267-68.267 68.267h-91.022c-28.444 0-45.511 17.067-51.2 28.444-5.689 5.689-17.067 28.444 0 56.889l45.511 79.644c17.067 34.133 5.689 73.956-22.756 91.022l-79.644 45.511c-11.378 5.689-22.756 11.378-34.133 11.378v0zM512 305.778c-79.644 0-142.222 62.578-142.222 142.222s62.578 142.222 142.222 142.222 142.222-62.578 142.222-142.222c0-79.644-62.578-142.222-142.222-142.222zM512 533.333c-45.511 0-85.333-39.822-85.333-85.333s39.822-85.333 85.333-85.333 85.333 39.822 85.333 85.333-39.822 85.333-85.333 85.333z" />
<glyph unicode="&#xe905;" glyph-name="icon-hospital-custom" d="M967.111 789.333v-682.667h-910.222v682.667h910.222zM967.111 846.222h-910.222c-34.133 0-56.889-22.756-56.889-56.889v-682.667c0-34.133 22.756-56.889 56.889-56.889h910.222c34.133 0 56.889 22.756 56.889 56.889v682.667c0 34.133-22.756 56.889-56.889 56.889v0zM341.333 618.667c34.133 0 56.889-22.756 56.889-56.889s-22.756-56.889-56.889-56.889-56.889 22.756-56.889 56.889 22.756 56.889 56.889 56.889zM341.333 675.556c-62.578 0-113.778-51.2-113.778-113.778s51.2-113.778 113.778-113.778 113.778 51.2 113.778 113.778-51.2 113.778-113.778 113.778v0zM540.444 220.444h-56.889c0 79.644-62.578 142.222-142.222 142.222s-142.222-62.578-142.222-142.222h-56.889c0 108.089 91.022 199.111 199.111 199.111s199.111-91.022 199.111-199.111zM625.778 675.556h284.444v-56.889h-284.444v56.889zM682.667 561.778h227.556v-56.889h-227.556v56.889zM739.556 448h170.667v-56.889h-170.667v56.889z" />
<glyph unicode="&#xe906;" glyph-name="icon-video-custom" d="M796.444 504.889v-455.111h-739.556v455.111h739.556zM796.444 561.778h-739.556c-34.133 0-56.889-22.756-56.889-56.889v-455.111c0-34.133 22.756-56.889 56.889-56.889h739.556c34.133 0 56.889 22.756 56.889 56.889v455.111c0 34.133-22.756 56.889-56.889 56.889v0zM967.111 413.867v-273.067l-113.778 56.889v159.289l113.778 56.889zM967.111 470.756c-5.689 0-17.067 0-22.756-5.689l-147.911-73.956v-227.556l147.911-73.956c5.689-5.689 17.067-5.689 22.756-5.689 28.444 0 56.889 22.756 56.889 56.889v273.067c0 34.133-28.444 56.889-56.889 56.889v0zM256 903.111c79.644 0 142.222-62.578 142.222-142.222s-62.578-142.222-142.222-142.222-142.222 62.578-142.222 142.222 62.578 142.222 142.222 142.222zM256 960c-108.089 0-199.111-91.022-199.111-199.111s91.022-199.111 199.111-199.111 199.111 91.022 199.111 199.111-91.022 199.111-199.111 199.111v0zM597.333 789.333c45.511 0 85.333-39.822 85.333-85.333s-39.822-85.333-85.333-85.333-85.333 39.822-85.333 85.333 39.822 85.333 85.333 85.333zM597.333 846.222c-79.644 0-142.222-62.578-142.222-142.222s62.578-142.222 142.222-142.222c79.644 0 142.222 62.578 142.222 142.222s-62.578 142.222-142.222 142.222v0zM170.667 163.556h512v-56.889h-512v56.889z" />
<glyph unicode="&#xe907;" glyph-name="icon-arrow-down" d="M891.802 660.019c13.926 13.722 36.301 13.722 50.125 0s13.875-35.891 0-49.613l-404.89-400.896c-13.824-13.722-36.198-13.722-50.125 0l-404.89 400.896c-13.824 13.722-13.824 35.891 0 49.613 13.875 13.722 36.301 13.722 50.125 0l379.853-365.619 379.802 365.619z" />
<glyph unicode="&#xe908;" glyph-name="icon-arrow-right" d="M678.4 448l-365.619 379.904c-13.722 13.824-13.722 36.198 0 50.125 13.722 13.824 35.891 13.824 49.613 0l400.896-404.89c13.722-13.875 13.722-36.301 0-50.125l-400.896-404.89c-13.722-13.875-35.891-13.824-49.613 0-13.722 13.773-13.722 36.198 0 50.125l365.619 379.75z" />
<glyph unicode="&#xe909;" glyph-name="icon-logo-custom" horiz-adv-x="5438" d="M4188.913 694.953h104.649v-192.672h-104.649v192.672zM4399.19 502.281h104.649v281.673h-314.926v-52.814h210.277zM4052.967 783.954h-167.244v-696.359h104.649v246.464h37.165v52.814h-37.165v138.881h37.165v52.814h-37.165v152.573h62.594v-589.754h-27.385v-53.792h132.034v696.359h-11.736zM4500.905 141.387l-89.001 113.452 100.737 156.485v52.814h-323.729v-52.814h193.65l-41.077-67.484-22.495 29.341h-130.078l95.847-121.276-67.484-110.518h-28.363v-53.792h113.452l50.858 78.243 61.616-78.243h121.276v53.792zM4839.305 783.954h-120.298l-82.155-236.684h42.055v-459.675h103.671v534.006zM5159.121 502.281h103.671l-82.155 281.673h-294.388v-52.814h205.387zM5148.363 464.138h-319.817v-52.814h58.682l-41.077-323.729h104.649l41.077 323.729h156.485v-269.937h-44.011v-53.792h148.661v376.543h-6.846zM4933.196 502.281l51.836 192.672h-104.649l-51.836-192.672zM2773.7 756.569v51.836h-104.649v-51.836h-269.937v-53.792h626.919v53.792zM2445.081 154.101h-32.275v-52.814h117.364l76.287 244.508h-104.649zM2923.339 345.796h-104.649l76.287-244.508h117.364v52.814h-32.275zM2882.262 383.939h104.649v259.179h-390.235v-53.792h285.585v-151.595h-338.399v205.387h-103.671v-259.179h220.057v-232.772h-44.011v-62.594h148.661v295.366zM3734.128 141.387l-53.792 181.914h-81.177l41.077 165.287h-88.023l-24.451-108.562v183.87h138.881v-221.035h81.177v283.629h-130.078l27.385 104.649h108.562v52.814h-307.102v-52.814h117.364l-27.385-104.649h-89.979v-288.52h71.396l-45.968-196.585h-25.429v-53.792h93.891l55.748 224.947 65.528-224.947h114.43v53.792zM3293.035 783.954h-156.485v-696.359h289.498v52.814h-51.836v107.584h51.836v378.499h-51.836v104.649h51.836v52.814h-133.012zM3343.893 563.897v-253.31h-22.495v253.31h22.495zM3293.035 626.491h-51.836v-378.499h51.836v-106.606h-75.309v589.754h75.309v-104.649zM1452.378 187.354v197.563h193.65l25.429 99.759h-219.079v196.585h235.706l24.451 99.759h-376.543v-693.425h352.092l24.451 99.759zM621.051 87.595l-213.211 370.674 212.233 322.751h-126.166l-202.453-308.080v308.080h-116.386v-693.425h116.386v334.487l193.65-334.487zM1133.54 781.020l-213.211-395.125v-298.3h116.386v289.498l220.057 403.927zM1908.141 187.354v197.563h194.628l24.451 99.759h-219.079v196.585h235.706l25.429 99.759h-377.521v-693.425h352.092l25.429 99.759zM857.734 468.050l168.222 312.97h-340.355zM685.601 781.020v0 0z" />
<glyph unicode="&#xe90a;" glyph-name="icon-checkbox-normal-custom" d="M73.143 155.674c0-81.027 65.538-146.531 146.531-146.531h584.653c81.027 0 146.531 65.538 146.531 146.531v584.653c0 81.027-65.538 146.531-146.531 146.531h-584.653c-81.027 0-146.531-65.538-146.531-146.531v-584.653zM219.674 960h584.653c121.322 0 219.674-98.185 219.674-219.674v-584.653c0-121.322-98.185-219.674-219.674-219.674h-584.653c-121.322 0-219.674 98.185-219.674 219.674v584.653c0 121.322 98.185 219.674 219.674 219.674z" />
<glyph unicode="&#xe90b;" glyph-name="icon-checkbox-active-custom" d="M0 740.571v-585.143c0-124.343 95.086-219.429 219.429-219.429h585.143c124.343 0 219.429 95.086 219.429 219.429v585.143c0 124.343-95.086 219.429-219.429 219.429h-585.143c-124.343 0-219.429-95.086-219.429-219.429zM497.371 9.143l-424.229 226.743v226.743l351.086-226.743 380.343 650.971 146.286-73.143-453.486-804.571z" />
<glyph unicode="&#xe90c;" glyph-name="icon-radiobox-normal-custom" d="M512 901.486c248.686 0 453.486-204.8 453.486-453.486s-204.8-453.486-453.486-453.486-453.486 204.8-453.486 453.486 204.8 453.486 453.486 453.486zM512 960c-285.257 0-512-226.743-512-512s226.743-512 512-512 512 226.743 512 512-226.743 512-512 512v0z" />
<glyph unicode="&#xe90d;" glyph-name="icon-equipment-custom" d="M961.422 790.755v-676.978h-898.844v676.978h898.844zM967.111 853.333h-910.222c-34.133 0-56.889-22.756-56.889-56.889v-682.667c0-34.133 22.756-56.889 56.889-56.889h910.222c34.133 0 56.889 22.756 56.889 56.889v682.667c0 34.133-22.756 56.889-56.889 56.889v0zM170.667 227.555h682.667v-56.889h-682.667v56.889zM455.111 739.555h113.778v-56.889h-113.778v56.889z" />
<glyph unicode="&#xe90e;" glyph-name="icon-radiobox-active-custom" d="M512 960c-285.257 0-512-226.743-512-512s226.743-512 512-512 512 226.743 512 512c0 285.257-226.743 512-512 512zM512 301.714c-80.457 0-146.286 65.829-146.286 146.286s65.829 146.286 146.286 146.286 146.286-65.829 146.286-146.286c0-80.457-65.829-146.286-146.286-146.286z" />
<glyph unicode="&#xe90f;" glyph-name="icon-star-normal-custom" horiz-adv-x="1069" d="M216.501-18.261l14.855-10.793 9.272 337.125-205.659 267.29-5.674-17.464 323.49 95.359 190.656 278.19h-18.362l190.656-278.19 323.49-95.359-5.674 17.464-205.659-267.29 0.109-3.956 9.163-333.169 14.855 10.793-317.76 112.996-317.76-112.996zM530.532 72.435l329.333-117.111-9.61 349.403-2.305-7.093 213.149 277.025-335.272 98.832 6.034-4.384-197.6 288.322-197.6-288.322 6.034 4.384-335.272-98.832 213.149-277.025-2.305 7.093-9.61-349.403 329.333 117.111h-7.458z" />
<glyph unicode="&#xe910;" glyph-name="icon-star-active-custom" horiz-adv-x="1071" d="M535.273 66.327l-328.305-116.745 9.58 348.313-212.483 276.16 334.225 98.524 196.983 287.422 196.983-287.422 334.225-98.524-212.483-276.16 9.58-348.313z" />
<glyph unicode="&#xe911;" glyph-name="icon-home" d="M512 887.466c0 0-316.723-273.407-493.721-421.478-10.393-9.421-18.278-23.142-18.278-39.322 0-28.314 22.886-51.2 51.2-51.2h102.399v-358.4c0-28.314 22.886-51.2 51.2-51.2h153.6c28.314 0 51.2 22.938 51.2 51.2v204.8h204.8v-204.8c0-28.262 22.886-51.2 51.2-51.2h153.6c28.314 0 51.2 22.886 51.2 51.2v358.4h102.399c28.314 0 51.2 22.886 51.2 51.2 0 16.18-7.885 29.9-19.609 39.322-175.77 148.070-492.389 421.478-492.389 421.478z" />
<glyph unicode="&#xe912;" glyph-name="icon-exclamation-custom" d="M512 960c-281.6 0-512-230.4-512-512s230.4-512 512-512 512 230.4 512 512-230.4 512-512 512zM512 64c-38.4 0-64 25.6-64 64s25.6 64 64 64 64-25.6 64-64c0-38.4-25.6-64-64-64zM576 320c0-32-25.6-64-64-64-32 0-64 32-64 64v448c0 32 32 64 64 64 38.4 0 64-25.6 64-64v-448z" />
<glyph unicode="&#xe913;" glyph-name="icon-edit-custom" horiz-adv-x="977" d="M939.537 718.964c21.592 21.678 21.592 54.193 0 75.87l-124.151 124.643c-21.592 21.678-53.979 21.678-75.57 0l-97.162-97.547 205.119-205.933 91.764 102.968zM-15.886 166.198v-205.933h205.119l593.764 601.541-205.118 205.933-593.766-601.541z" />
<glyph unicode="&#xe914;" glyph-name="icon-radiodelete-custom" d="M561.369 448l197.476-197.476-49.369-49.369-197.476 197.476-197.476-197.476-49.369 49.369 197.476 197.476-197.476 197.476 49.369 49.369 197.476-197.476 197.476 197.476 49.369-49.369-197.476-197.476zM512-64c282.77 0 512 229.23 512 512s-229.23 512-512 512c-282.77 0-512-229.23-512-512s229.23-512 512-512v0z" />
<glyph unicode="&#xe915;" glyph-name="icon-paintpot-custom" d="M673.401 756.387l-68.216-39.385 39.385-68.216 68.216 39.385 202.454-350.661 47.181-8.899 15.504 57.863-79.361-45.819-595.743 112.365-117.486 203.491-28.832-107.601 545.729 315.077-107.601 28.832 78.769-136.432zM741.617 795.771l-78.769 136.432-545.729-315.077 354.462-613.945 545.729 315.077-236.308 409.297 204.648 118.154-39.385 68.216-204.648-118.154zM439.55 69.427l-2.35 4.86-5.005-2.89 7.355-1.971zM118.154 14.769v0c-65.255 0-118.154 52.899-118.154 118.154s52.899 182.567 118.154 182.567c65.255 0 118.154-117.312 118.154-182.567s-52.899-118.154-118.154-118.154z" />
<glyph unicode="&#xe916;" glyph-name="icon-PieChart-custom" d="M1024 474.947c0 265.692-217.165 485.053-485.053 485.053 0-266.312 0-485.053 0-485.053s203.682-0.886 485.053 0v0zM485.053-64c267.887 0 485.053 217.165 485.053 485.053-251.819 0-485.053 0-485.053 0v481.739c-267.887 0-485.053-213.852-485.053-481.739s217.165-485.053 485.053-485.053v0z" />
<glyph unicode="&#xe917;" glyph-name="icon-calendar-custom" horiz-adv-x="1126" d="M972.8 857.6h-102.4v-51.2h102.4c56.474 0 102.4-45.926 102.4-102.4v-614.4c0-56.474-45.926-102.4-102.4-102.4h-819.2c-56.474 0-102.4 45.926-102.4 102.4v614.4c0 56.474 45.926 102.4 102.4 102.4h102.4v51.2h-102.4c-84.838 0-153.6-68.762-153.6-153.6v-614.4c0-84.838 68.762-153.6 153.6-153.6h819.2c84.838 0 153.6 68.762 153.6 153.6v614.4c0 84.838-68.762 153.6-153.6 153.6v0zM307.2 704h51.2v256h-51.2v-256zM768 704h51.2v256h-51.2v-256zM51.2 560.64h1024v40.96h-1024v-40.96zM153.6 396.8h51.2v51.2h-51.2v-51.2zM409.6 396.8h51.2v51.2h-51.2v-51.2zM153.6 192h51.2v51.2h-51.2v-51.2zM409.6 192h51.2v51.2h-51.2v-51.2zM921.6 396.8h51.2v51.2h-51.2v-51.2zM665.6 396.8h51.2v51.2h-51.2v-51.2zM409.6 806.4h307.2v51.2h-307.2v-51.2z" />
<glyph unicode="&#xe918;" glyph-name="icon-message-custom" d="M312.889 44.089c-17.067 0-28.444 5.689-39.822 17.067l-56.889 73.956h-39.822c-79.644 0-147.911 68.267-147.911 147.911v500.622c0 79.644 68.267 147.911 147.911 147.911h557.511c79.644 0 147.911-68.267 147.911-147.911v-415.289l-45.511 22.756c-34.133 17.067-62.578 28.444-96.711 28.444-108.089 0-199.111-91.022-199.111-199.111 0-17.067 0-28.444 5.689-51.2l11.378-34.133h-147.911l-56.889-73.956c-11.378-11.378-22.756-17.067-39.822-17.067zM176.356 874.667c-51.2 0-91.022-39.822-91.022-91.022v-500.622c0-51.2 39.822-91.022 91.022-91.022h68.267l73.956-91.022 73.956 91.022h102.4c0 11.378 0 17.067 0 28.444 0 142.222 113.778 256 256 256 28.444 0 56.889-5.689 85.333-17.067v324.267c0 51.2-39.822 91.022-91.022 91.022h-568.889zM739.556-29.867c-136.533 0-250.311 113.778-250.311 250.311s113.778 250.311 250.311 250.311 250.311-113.778 250.311-250.311-113.778-250.311-250.311-250.311zM739.556 425.244c-113.778 0-204.8-91.022-204.8-204.8s91.022-204.8 204.8-204.8 204.8 91.022 204.8 204.8-91.022 204.8-204.8 204.8zM853.333 197.689h-113.778c-11.378 0-22.756 11.378-22.756 22.756v113.778h45.511v-91.022h91.022v-45.511zM227.556 760.889h455.111v-51.2h-455.111v51.2zM227.556 584.533h341.333v-45.511h-341.333v45.511z" />
<glyph unicode="&#xe919;" glyph-name="icon-download-down" d="M768 614.4h-153.6v307.2h-204.8v-307.2h-153.6l256-256 256 256zM990.106 279.962c-10.752 11.469-82.483 88.218-102.963 108.237-13.568 13.261-32.973 21.402-53.35 21.402h-89.958l156.877-153.293h-181.453c-5.222 0-9.933-2.662-12.288-6.81l-41.779-95.898h-306.381l-41.779 95.898c-2.355 4.147-7.117 6.81-12.288 6.81h-181.453l156.826 153.293h-89.907c-20.326 0-39.731-8.141-53.35-21.402-20.48-20.070-92.211-96.819-102.963-108.237-25.037-26.675-38.81-47.923-32.256-74.189l28.723-157.389c6.554-26.317 35.379-47.923 64.102-47.923h835.174c28.723 0 57.549 21.606 64.102 47.923l28.723 157.389c6.451 26.266-7.27 47.514-32.358 74.189z" />
<glyph unicode="&#xe91a;" glyph-name="icon-selectall-custom" d="M390.356 173.423l-4.938-4.938-251.853 251.853 94.445 94.445 173.149-173.149 351.236 351.236 94.445-94.445-440.743-440.743-15.741 15.741zM860.807 99.193c191.255 191.255 191.255 501.341 0 692.596s-501.341 191.255-692.596 0c-191.255-191.255-191.255-501.341 0-692.596s501.341-191.255 692.596 0z" />
<glyph unicode="&#xe91b;" glyph-name="icon-dropdowntriangle-custom" d="M256 665.6h512l-256-460.8-256 460.8z" />
<glyph unicode="&#xe91c;" glyph-name="icon-templet-custom" d="M192 960h640c105.767 0 192-85.544 192-192v-640c0-105.767-85.544-192-192-192h-640c-105.767 0-192 85.544-192 192v640c0 105.767 85.544 192 192 192v0zM64 128c0-70.836 57.305-128 128-128h640c70.836 0 128 57.305 128 128v640c0 70.836-57.305 128-128 128h-640c-70.836 0-128-57.305-128-128v-640zM192 768h640v-64h-640v64zM192 384h256v-64h-256v64zM192 576h512v-64h-512v64z" />
<glyph unicode="&#xe91d;" glyph-name="icon-Printer-custom" horiz-adv-x="1103" d="M945.231 644.923h-787.692c-85.821 0-157.538-70.928-157.538-157.538v-315.077h236.308v-236.308h630.154v236.308h236.308v315.077c0 86.609-71.724 157.538-157.538 157.538v0zM787.692 14.769h-472.615v315.077h472.615v-315.077zM945.231 487.385c-63.011 0-78.769 15.752-78.769 78.769 0-15.696 15.757 0 78.769 0-15.696 0 0-15.696 0 0 0-63.017-15.696-78.769 0-78.769v0zM866.462 960h-630.154v-236.308h630.154v236.308z" />
<glyph unicode="&#xe91e;" glyph-name="icon-barcode-custom" d="M605.091 354.909h139.636v-139.636h-139.636v139.636zM930.909 354.909h93.091v-93.091h-93.091v93.091zM605.091 29.091h93.091v-93.091h-93.091v93.091zM837.818 122.182h186.182v-186.182h-186.182v186.182zM46.431 354.909h326.047c25.643 0 46.431-20.774 46.431-46.431v-326.047c0-25.643-20.774-46.431-46.431-46.431h-326.047c-25.643 0-46.431 20.774-46.431 46.431v326.047c0 25.643 20.774 46.431 46.431 46.431zM46.545-17.569c0 0.056 325.932 0.114 325.932 0.114-0.056 0-0.114 325.932-0.114 325.932 0-0.056-325.932-0.114-325.932-0.114 0.056 0 0.114-325.932 0.114-325.932zM93.091 261.818h232.727v-232.727h-232.727v232.727zM651.522 960h326.047c25.643 0 46.431-20.774 46.431-46.431v-326.047c0-25.643-20.774-46.431-46.431-46.431h-326.047c-25.643 0-46.431 20.774-46.431 46.431v326.047c0 25.643 20.774 46.431 46.431 46.431zM651.636 587.522c0 0.056 325.932 0.114 325.932 0.114-0.056 0-0.114 325.932-0.114 325.932 0-0.056-325.932-0.114-325.932-0.114 0.056 0 0.114-325.932 0.114-325.932zM698.182 866.909h232.727v-232.727h-232.727v232.727zM46.431 960h326.047c25.643 0 46.431-20.774 46.431-46.431v-326.047c0-25.643-20.774-46.431-46.431-46.431h-326.047c-25.643 0-46.431 20.774-46.431 46.431v326.047c0 25.643 20.774 46.431 46.431 46.431zM46.545 587.522c0 0.056 325.932 0.114 325.932 0.114-0.056 0-0.114 325.932-0.114 325.932 0-0.056-325.932-0.114-325.932-0.114 0.056 0 0.114-325.932 0.114-325.932zM93.091 866.909h232.727v-232.727h-232.727v232.727z" />
<glyph unicode="&#xe91f;" glyph-name="icon-normal" d="M698.24 543.040l-32.064 32.064c-5.92 5.92-15.488 5.92-21.376 0l-192.448-192.416-91.488 92.224c-5.952 5.92-15.488 5.92-21.44 0l-32.064-32.096c-5.92-5.92-5.92-15.488 0-21.376l134.176-135.136c5.92-5.888 15.488-5.888 21.376 0l235.328 235.328c5.952 5.92 5.952 15.488 0 21.408zM512 864c-229.76 0-416-186.24-416-416s186.24-416 416-416 416 186.24 416 416-186.24 416-416 416zM512 128c-176.704 0-320 143.296-320 320 0 176.736 143.296 320 320 320 176.736 0 320-143.264 320-320 0-176.704-143.264-320-320-320z" />
<glyph unicode="&#xe920;" glyph-name="icon-unusually" d="M496 864c-238.592 0-432-193.408-432-432s193.408-432 432-432 432 193.408 432 432-193.408 432-432 432zM496 96c-185.568 0-336 150.432-336 336s150.432 336 336 336 336-150.432 336-336-150.432-336-336-336zM496 640c-26.496 0-48-21.472-48-48v-161.984c0-26.496 21.504-48 48-48s48 21.504 48 48v161.984c0 26.528-21.504 48-48 48zM496 320c-26.496 0-48-21.504-48-48s21.504-48 48-48 48 21.504 48 48-21.504 48-48 48z" />
<glyph unicode="&#xe921;" glyph-name="icon-download" d="M883.968 289.44l-30.656-162.304h-682.624l-30.656 162.304h-76.32v-257.984h896.576v257.984h-76.32zM864.64 577.728h-224.704v93.76h-255.808v-93.76h-222.56l349.248-365.184 353.824 365.184zM639.904 832.576h-255.808v-34.112h255.808v34.112zM639.904 768.864h-255.808v-65.216h255.808v65.216z" />
<glyph unicode="&#xe922;" glyph-name="icon-file" d="M128.676 740.571h-128.676l56.889 73.143v-877.714l-56.889 73.143h1024l-56.889-73.143v877.714l56.889-73.143h-570.807l-40.92 200.899 55.033-54.613h-308.833l55.033 54.613-40.92-200.899h-43.909zM128.676 813.714l29.796 146.286h308.833l29.796-146.286h526.898v-877.714h-1024v877.714h128.676zM56.889 594.286h910.222v-73.143h-910.222v73.143z" />
<glyph unicode="&#xe923;" glyph-name="icon-usersettings" d="M426.667 846.222c96.711 0 170.667-73.956 170.667-170.667s-73.956-170.667-170.667-170.667-170.667 73.956-170.667 170.667 73.956 170.667 170.667 170.667zM426.667 903.111c-125.156 0-227.556-102.4-227.556-227.556s102.4-227.556 227.556-227.556 227.556 102.4 227.556 227.556-102.4 227.556-227.556 227.556v0zM836.267 391.111c0 0 0 0 0 0l45.511-28.444c0 0 5.689-5.689 0-5.689l-22.756-45.511c-22.756-39.822 5.689-91.022 51.2-91.022h51.2c5.689 0 5.689 0 5.689-5.689v-51.2c0-5.689 0-5.689-5.689-5.689h-51.2c-45.511 0-73.956-51.2-51.2-91.022l22.756-45.511c0 0 0-5.689 0-5.689l-45.511-22.756c0 0 0 0 0 0s-5.689 0-5.689 0l-22.756 45.511c-11.378 22.756-34.133 28.444-51.2 28.444-22.756 0-39.822-11.378-51.2-28.444l-22.756-45.511c0 0-5.689 0-5.689 0s0 0 0 0l-51.2 28.444c0 0-5.689 5.689 0 5.689l22.756 45.511c22.756 39.822-5.689 91.022-51.2 91.022h-51.2c-5.689 0-5.689 0-5.689 5.689v51.2c0 5.689 0 5.689 5.689 5.689h51.2c45.511 0 73.956 51.2 51.2 91.022l-22.756 45.511c0 0 0 5.689 0 5.689l45.511 22.756c0 0 0 0 0 0s5.689 0 5.689 0l22.756-45.511c11.378-22.756 34.133-28.444 51.2-28.444 22.756 0 39.822 11.378 51.2 28.444l34.133 45.511c-5.689 0 0 0 0 0zM671.289 419.556c-5.689 0-11.378 0-17.067-5.689l-45.511-22.756c-17.067-11.378-22.756-28.444-11.378-45.511l22.756-45.511c5.689-17.067 0-28.444 0-34.133s-11.378-17.067-28.444-17.067h-45.511c-17.067 0-34.133-17.067-34.133-34.133v-51.2c0-17.067 17.067-34.133 34.133-34.133h51.2c17.067 0 22.756-11.378 28.444-17.067 0-5.689 5.689-17.067 0-34.133l-22.756-45.511c-11.378-17.067-5.689-39.822 11.378-45.511l45.511-22.756c5.689-5.689 11.378-5.689 17.067-5.689 11.378 0 22.756 5.689 28.444 17.067l22.756 45.511c5.689 17.067 22.756 17.067 28.444 17.067s17.067 0 28.444-17.067l22.756-45.511c5.689-11.378 17.067-17.067 28.444-17.067 5.689 0 11.378 0 17.067 5.689l45.511 22.756c17.067 11.378 22.756 28.444 11.378 45.511l-22.756 45.511c-5.689 17.067 0 28.444 0 34.133s11.378 17.067 28.444 17.067h51.2c17.067 0 34.133 17.067 34.133 34.133v51.2c0 17.067-17.067 34.133-34.133 34.133h-56.889c-17.067 0-22.756 11.378-28.444 17.067 0 5.689-5.689 17.067 0 34.133l22.756 45.511c11.378 17.067 5.689 39.822-11.378 45.511l-39.822 22.756c-5.689 5.689-11.378 5.689-17.067 5.689-11.378 0-22.756-5.689-28.444-17.067l-22.756-45.511c-5.689-17.067-22.756-17.067-28.444-17.067s-17.067 0-28.444 17.067l-22.756 45.511c-11.378 11.378-22.756 17.067-34.133 17.067v0 0zM534.756 345.6l34.133 51.2c-45.511 11.378-91.022 22.756-142.222 22.756-210.489 0-381.156-164.978-398.222-369.778h56.889c17.067 176.356 159.289 312.889 341.333 312.889 34.133 0 73.956-5.689 108.089-17.067z" />
<glyph unicode="&#xe924;" glyph-name="icon-userhelp" d="M489.244 248.889c-11.378 0-22.756-5.689-34.133-11.378-11.378-11.378-17.067-22.756-17.067-34.133s5.689-28.444 17.067-34.133c11.378-11.378 22.756-11.378 34.133-11.378s22.756 5.689 34.133 11.378c11.378 11.378 17.067 22.756 17.067 34.133s-5.689 22.756-17.067 34.133-22.756 11.378-34.133 11.378zM512 766.578c-51.2 0-96.711-11.378-136.533-39.822v-79.644c39.822 34.133 79.644 56.889 130.844 56.889 28.444 0 56.889-5.689 73.956-22.756s28.444-39.822 28.444-62.578c0-22.756-5.689-45.511-17.067-62.578s-28.444-39.822-56.889-56.889c-28.444-22.756-45.511-39.822-56.889-62.578-17.067-22.756-22.756-45.511-22.756-73.956v-34.133h68.267v28.444c0 22.756 5.689 39.822 11.378 51.2 11.378 11.378 28.444 28.444 51.2 51.2 34.133 28.444 56.889 51.2 68.267 73.956s22.756 51.2 22.756 79.644c0 39.822-17.067 73.956-45.511 102.4-28.444 34.133-68.267 51.2-119.467 51.2zM512 931.556c-267.378 0-483.556-216.178-483.556-483.556s216.178-483.556 483.556-483.556 483.556 216.178 483.556 483.556c0 267.378-216.178 483.556-483.556 483.556zM512 21.333c-233.244 0-426.667 193.422-426.667 426.667s193.422 426.667 426.667 426.667 426.667-193.422 426.667-426.667-193.422-426.667-426.667-426.667z" />
<glyph unicode="&#xe925;" glyph-name="icon-wait" d="M512 848c-229.792 0-416-186.24-416-416s186.208-416 416-416c229.728 0 416 186.24 416 416s-186.24 416-416 416zM508.64 95.136c-185.568 0-336 150.432-336 336s150.432 336 336 336c185.536 0 336-150.432 336-336s-150.464-336-336-336zM605.76 411.808h-95.36v161.024c0 17.472-14.176 31.68-31.648 31.68-17.504 0-31.68-14.176-31.68-31.68v-192.672c0-17.504 14.176-31.648 31.68-31.648h127.008c17.504 0 31.68 14.144 31.68 31.648 0 17.472-14.176 31.648-31.68 31.648z" />
<glyph unicode="&#xe926;" glyph-name="icon-trash" horiz-adv-x="862" d="M107.789 582.737h-53.895v-646.737h754.526v646.737h-53.895v-592.842h-646.737v592.842zM538.947 852.211h323.368v-215.579h-53.895v161.684h-269.474v53.895h53.895v107.789h-323.368v-107.789h53.895v53.895h215.579v-53.895zM323.368 852.211h-323.368v-215.579h53.895v161.684h269.474v53.895zM269.474 528.842h53.895v-538.947h-53.895v538.947zM538.947 528.842h53.895v-538.947h-53.895v538.947z" />
<glyph unicode="&#xe927;" glyph-name="icon-update" d="M513.516 474.51l-16.157 16.157-241.359-241.359 60.34-60.34 197.176 197.176 197.176-197.176 60.34 60.34-241.359 241.359-16.157-16.157zM513.516 730.51l-16.157 16.157-241.359-241.359 60.34-60.34 197.176 197.176 197.176-197.176 60.34 60.34-241.359 241.359-16.157-16.157zM512 960c-282.782 0-512-229.218-512-512s229.218-512 512-512c282.782 0 512 229.218 512 512s-229.218 512-512 512zM512 54.154c-217.482 0-393.846 176.364-393.846 393.846 0 217.521 176.364 393.846 393.846 393.846 217.521 0 393.846-176.325 393.846-393.846 0-217.482-176.325-393.846-393.846-393.846z" />
<glyph unicode="&#xe928;" glyph-name="icon-service-custom" d="M204.8 146.489l170.667-34.133c5.689 0 5.689 0 11.378 0 17.067 0 28.444 5.689 39.822 17.067l500.622 500.622c22.756 22.756 22.756 56.889 0 79.644l-159.289 159.289c-11.378 11.378-28.444 17.067-39.822 17.067s-28.444-5.689-39.822-17.067l-500.622-500.622c-11.378-11.378-17.067-28.444-17.067-51.2l34.133-170.667zM728.178 834.844c0 0 0 0 0 0l159.289-159.289-500.622-500.622-136.533 28.444-22.756 125.156 500.622 506.311zM366.286 389.237l80.452-80.452-40.226-40.226-80.452 80.452 40.226 40.226zM56.889 49.778h910.222v-56.889h-910.222v56.889z" />
<glyph unicode="&#xe929;" glyph-name="icon-restart" d="M190.912 423.456l130.88 130.88h-76.704c0.704 1.92 1.44 3.808 2.144 5.696 45.504 115.264 157.888 196.8 289.28 196.8 171.712 0 310.912-139.2 310.912-310.88 0-171.712-139.2-310.912-310.912-310.912-126.272 0-234.976 75.328-283.616 183.456-0.48 0.992-0.768 2.112-1.248 3.168l-83.36-82.848c0.576-0.96 0.96-2.048 1.536-3.072 0.128-0.224 0.256-0.448 0.384-0.64 73.568-127.104 211.008-212.576 368.416-212.576 234.944 0 425.408 190.464 425.408 425.408s-190.496 425.472-425.44 425.472c-196.416 0-361.696-133.056-410.656-313.984-0.48-1.664-0.64-3.424-1.024-5.088h-66.912l130.912-130.88z" />
<glyph unicode="&#xe92a;" glyph-name="icon-repeat" d="M919.478 854.088l-319.765-353.492c-47.645-52.671-125.395-52.758-172.681-1.259l-324.008 352.871c-4.389-5.43-7.024-12.332-7.024-19.828v-768.76c0-17.307 14.368-31.62 32.189-31.62h196.154v-96h-196.154c-70.797 0-128.189 57.249-128.189 127.62v768.76c0 70.483 57.249 127.62 127.62 127.62h768.76c70.482 0 127.62-56.749 127.62-127.878v-384.122h-96v384.122c0 8.605-3.22 16.296-8.522 21.967zM798.994 864h-576.467l275.218-299.734c9.156-9.971 21.152-9.907 30.775 0.731l270.474 299.003zM768 198.475v-147.388l249.815 195.004-249.815 201.909v-131.591c-310.752-35.86-384-328.206-384-328.206s157.524 212.839 384 210.272z" />
<glyph unicode="&#xe92b;" glyph-name="icon-edit" horiz-adv-x="1434" d="M875.75 618.667h-739.217v-546.133h955.733v333.283h136.533v-469.817h-1228.8v819.2h875.75v-136.533zM614.4 301.667l731.153 658.333 91.359-101.464-731.153-658.333-91.359 101.464z" />
<glyph unicode="&#xe92c;" glyph-name="icon-sort" d="M0 960h1024v-146.286h-1024v146.286zM0 521.143h1024v-146.286h-1024v146.286zM0 82.286h1024v-146.286h-1024v146.286z" />
<glyph unicode="&#xe92d;" glyph-name="icon-apatter" d="M813.231 33.946c-84.526-61.6-188.634-97.946-301.231-97.946-282.77 0-512 229.23-512 512s229.23 512 512 512c153.923 0 291.982-67.923 385.84-175.43-57.715 22.628-112.191 29.401-162.85 20.144-85.117-15.555-128.978-71.656-135.985-81.331-27.23-30.86-38.451-71.648-32.454-118.056 2.8-21.669 8.785-39.849 12.903-50.482-8.346-14.836-31.477-47.595-75.773-54.349-7.1-1.083-13.181-5.669-16.178-12.201s-2.51-14.137 1.296-20.234c2.152-3.446 18.699-29.013 44.761-43.935-2.903-14.994-6.563-37.884-7.705-62.562-2.86-61.75 11.345-102.927 42.22-122.385 28.263-17.811 67.262-23.431 115.915-16.699 34.564 4.782 61.486 14.24 62.615 14.64 0.487 0.172 0.967 0.362 1.439 0.569 0.089 0.040 9.666 3.469 20.737-4.037 14.308-9.698 46.085-48.373 44.45-199.705zM855.681 68.486c41.946 38.009 77.563 82.876 105.082 132.83-34.382 52.953-28.32 97.152-27.925 99.743 1.278 8.376 7.382 15.203 15.557 17.402 0.457 0.126 41.88 11.871 68.375 43.314 4.754 28.032 7.229 56.839 7.229 86.225 0 95.776-26.298 185.41-72.067 262.075-77.090 46.247-147.335 63.939-209.278 52.619-73.866-13.5-108.933-64.122-109.279-64.632-0.546-0.804-1.146-1.572-1.797-2.295-47.083-52.365-9.845-131.516-9.464-132.309 2.661-5.453 2.853-11.728 0.573-17.352-1.049-2.588-22.618-54.256-77.75-77.944 5.776-4.86 12.303-9.036 19.030-10.96 11.094-3.172 17.659-14.596 14.822-25.789-10.543-41.799-21.481-134.969 12.026-156.087 39.701-25.021 114.925-7.227 141.152 1.921 6.13 2.407 32.537 10.894 60.745-8.226 21.164-14.344 37.213-40.661 47.7-78.216 8.949-32.047 14.056-73.033 15.27-122.32zM983.781 248.745c6.342 14.998 11.99 30.36 16.903 46.048-9.595-5.389-18.461-9.369-25.5-12.168 0.619-6.974 2.255-16.556 6.241-27.756 0.728-2.047 1.514-4.088 2.356-6.123zM162.909 626.424c29.991 0 54.303 24.312 54.303 54.303s-24.312 54.303-54.303 54.303c-29.991 0-54.303-24.312-54.303-54.303s24.312-54.303 54.303-54.303zM504.242 789.333c21.422 0 38.788 17.366 38.788 38.788s-17.366 38.788-38.788 38.788c-21.422 0-38.788-17.366-38.788-38.788s17.366-38.788 38.788-38.788zM589.576 29.091c21.422 0 38.788 17.366 38.788 38.788s-17.366 38.788-38.788 38.788c-21.422 0-38.788-17.366-38.788-38.788s17.366-38.788 38.788-38.788zM252.121 137.697c32.133 0 58.182 26.049 58.182 58.182s-26.049 58.182-58.182 58.182c-32.133 0-58.182-26.049-58.182-58.182s26.049-58.182 58.182-58.182zM341.333 494.545c47.128 0 85.333 38.205 85.333 85.333s-38.205 85.333-85.333 85.333c-47.128 0-85.333-38.205-85.333-85.333s38.205-85.333 85.333-85.333z" />
<glyph unicode="&#xe92e;" glyph-name="icon-touch" d="M135.403 101.127c-84.061 91.218-135.403 213.050-135.403 346.873 0 282.77 229.23 512 512 512s512-229.23 512-512c0-282.77-229.23-512-512-512-133.039 0-254.226 50.741-345.265 133.927 1.009 0.011 1.855 0.015 2.776 0.015 4.128 0 8.504 0.007 19.349 0.028 4.118 0.008 4.118 0.008 8.304 0.015 15.731 0.025 25.572 0.017 31.216-0.042 50.225-0.526 84.986-7.897 157.084-29.294 1.84-0.546 1.84-0.546 3.68-1.092 16.362-4.854 25.609-7.531 35.873-10.324 2.901-0.789 14.583-4.020 17.486-4.811 22.928-6.252 38.638-9.714 54.735-11.467 16.137-1.758 30.698-1.364 44.047 1.538 32.276 7.017 61.352 19.058 99.134 39.433 6.884 3.713 13.849 7.572 23.48 12.986 5.913 3.327 5.913 3.327 11.871 6.683 4.757 2.677 8.432 4.737 12.035 6.743 4.687 2.61 9.538 5.284 18.927 10.453 4.63 2.557 6.461 3.571 9.252 5.129 15.126 8.441 26.819 15.332 38.719 22.974 1.701 1.092 20.785 12.935 27.087 17.037 6.25 4.068 11.629 7.777 16.334 11.309 8.762 6.578 14.911 12.345 18.206 17.426 19.063 29.38 10.578 79.604-19.055 87.35-8.076 2.112-17.371 1.408-28.967-1.561-4.322-1.107-8.564-2.399-14.787-4.44-13.527-4.436-12.943-4.25-17.070-5.322-15.874-4.124-28.839-7.578-58.75-15.608-58.3-15.653-83.499-22.203-111.071-28.546l-1.241-1.559c8.932 39.863-4.671 56.604-46.907 79.624-2.442 1.33-2.442 1.33-4.886 2.663-3.75 2.049-6.527 3.598-9.219 5.157-32.658 18.906-58.209 33.653-109.846 63.417-4.37 2.519-8.166 4.874-15.482 9.535-7.762 4.945-10.405 6.603-14.334 8.935-10.461 6.207-18.914 10.141-27.206 12.27-13.375 3.434-38.985 4.011-58.292 2.31-16.794-1.478-31.578-6.606-49.618-16.225-6.875-3.666-31.14-17.822-32.797-18.758-3.064-1.729-5.953-3.32-8.791-4.835-10.523-5.615-23.827-13.74-35.258-21.61-2.004-1.38-4.152-2.699-7.554-4.686-1.14-0.664-1.14-0.664-2.288-1.332-15.772-9.182-21.398-14.553-20.281-23.8 0.685-5.671 6.801-12.962 12.674-13.847 6.986-1.053 12.377 2.127 21.141 10.346 6.225 5.838 7.008 6.53 9.379 7.992 43.169 26.612 75.309 43.74 100.378 50.78 37.449 10.517 66.136 2.452 107.159-22.358 0.516-0.312 16.319-10.020 20.696-12.587 15.181-8.903 29.848-17.39 45.891-26.57 2.256-1.29 2.256-1.29 4.513-2.58 13.026-7.44 17.622-10.047 50.401-28.616 1.459-0.826 14.54-7.529 18.799-9.989 13.741-7.938 21.765-15.819 23.448-25.14 3.174-17.578-9.184-32.169-24.582-33.224-5.351-0.365-11.075 0.962-19.901 4.156-1.882 0.688-1.882 0.688-3.77 1.391-5.181 1.932-7.074 2.613-9.713 3.444-4.084 1.284-3.532 1.089-17.544 6.119-1.69 0.606-1.69 0.606-3.386 1.208-4.714 1.67-8.463 2.936-11.92 3.999-1.756 0.54-15.499 5.464-20.12 7.007-4.289 1.432-8.263 2.668-12.042 3.723-18.879 5.272-31.144 5.688-35.355-1.238-7.247-11.918 1.219-22.528 18.985-28.396 11.488-3.796 18.157-5.781 40.74-12.298 5.651-1.631 9.446-2.736 13.294-3.879 7.707-2.288 14.321-4.348 20.702-6.471 3.017-1.004 5.746-2.067 10.298-3.953 3.296-1.371 4.86-2.015 6.593-2.696 8.229-3.236 14.34-4.757 20.985-4.757 11.144 0 22.925 2.517 40.573 7.938 2.277 0.699 3.975 1.232 7.935 2.483 12.128 3.837 16.226 5.084 22.107 6.617 18.544 4.837 37.424 9.812 64.16 16.892 3.159 0.837 3.159 0.837 6.318 1.673 80.592 21.35 101.744 26.908 136.744 35.789 7.43-12.966 6.536-25.421-2.474-37.573-6.643-8.959-15.315-15.75-31.631-26.346-50.020-32.482-94.604-57.66-144.762-81.43-2.502-1.186-15.695-7.54-19.574-9.371-25.833-12.188-44.139-18.758-62.605-21.061-13.478-1.682-28.752-0.828-46.375 2.206-12.135 2.089-24.387 4.974-41.014 9.431-3.466 0.929-16.535 4.492-19.579 5.307-10.068 2.696-19.397 5.344-35.033 9.89-2.453 0.713-2.453 0.713-4.907 1.427-70.786 20.595-105.132 27.968-154.069 29.503-8.071 0.253-15.682 0.253-37.054 0.101-9.816-0.069-14.984-0.097-20.909-0.1-4.256 0.010-4.256 0.010-7.505 0.041-13.881 0.132-19.848-0.095-25.314-1.499zM562.424 541.091c14.995 0 27.152 12.156 27.152 27.152s-12.156 27.152-27.152 27.152c-14.995 0-27.152-12.156-27.152-27.152s12.156-27.152 27.152-27.152zM640 316.121c14.995 0 27.152 12.156 27.152 27.152s-12.156 27.152-27.152 27.152c-14.995 0-27.152-12.156-27.152-27.152s12.156-27.152 27.152-27.152zM349.091 688.485c42.844 0 77.576 34.732 77.576 77.576s-34.732 77.576-77.576 77.576c-42.844 0-77.576-34.732-77.576-77.576s34.732-77.576 77.576-77.576zM868.848 370.424c42.844 0 77.576 34.732 77.576 77.576s-34.732 77.576-77.576 77.576c-42.844 0-77.576-34.732-77.576-77.576s34.732-77.576 77.576-77.576zM845.576 634.182c21.422 0 38.788 17.366 38.788 38.788s-17.366 38.788-38.788 38.788c-21.422 0-38.788-17.366-38.788-38.788s17.366-38.788 38.788-38.788z" />
<glyph unicode="&#xe92f;" glyph-name="icon-air" d="M827.342 44.606c-86.922-68.045-196.395-108.606-315.342-108.606-282.77 0-512 229.23-512 512s229.23 512 512 512c282.77 0 512-229.23 512-512 0-131.943-49.909-252.23-131.879-343.010v443.919c0 25.65-20.832 46.485-46.529 46.485h-395.669c-25.686 0-46.529-20.812-46.529-46.485v-457.818c0-2.622 0.218-5.193 0.636-7.697h-27.823c-10.682 0-19.358-8.683-19.358-19.394 0-10.786 8.667-19.394 19.358-19.394h451.135zM853.333 261.034v-177.641h-186.182v189.367l42.825 42.825c7.598 7.598 7.59 19.87 0.017 27.444-7.627 7.627-19.861 7.566-27.444-0.017l-15.398-15.398v228.99h147.317c21.465 0 38.865-17.403 38.865-38.725v-219.175c-7.078 3.036-15.544 1.639-21.306-4.124l-131.61-131.61c-7.558-7.558-7.554-19.833 0.020-27.407 7.627-7.627 19.844-7.583 27.407-0.020l125.489 125.489zM628.364 233.973v-150.58h-186.182v434.487c0 21.387 17.404 38.725 38.865 38.725h147.317v-267.778l-143.256-143.256c-7.598-7.598-7.59-19.87-0.017-27.444 7.627-7.627 19.861-7.566 27.444 0.017l115.829 115.829zM162.909 486.788c29.991 0 54.303 24.312 54.303 54.303s-24.312 54.303-54.303 54.303c-29.991 0-54.303-24.312-54.303-54.303s24.312-54.303 54.303-54.303zM256 308.364c21.422 0 38.788 17.366 38.788 38.788s-17.366 38.788-38.788 38.788c-21.422 0-38.788-17.366-38.788-38.788s17.366-38.788 38.788-38.788zM302.545 665.212c47.128 0 85.333 38.205 85.333 85.333s-38.205 85.333-85.333 85.333c-47.128 0-85.333-38.205-85.333-85.333s38.205-85.333 85.333-85.333z" />
<glyph unicode="&#xe930;" glyph-name="icon-resetting" d="M940.8 236.8c-19.2 12.8-44.8 6.4-51.2-12.8-76.8-134.4-224-211.2-371.2-211.2-204.8 0-377.6 140.8-422.4 326.4l57.6-57.6c12.8-12.8 38.4-12.8 51.2 0s12.8 38.4 0 51.2l-140.8 140.8c-6.4 12.8-25.6 12.8-38.4 12.8-19.2-6.4-25.6-25.6-25.6-38.4 0-281.6 230.4-512 512-512 179.2 0 345.6 96 441.6 249.6 6.4 19.2 6.4 44.8-12.8 51.2v0zM512 960c-198.4 0-371.2-108.8-460.8-288-6.4-19.2 0-44.8 19.2-51.2s44.8 0 51.2 19.2c70.4 147.2 224 243.2 390.4 243.2 204.8 0 377.6-140.8 422.4-326.4l-70.4 70.4c-12.8 12.8-38.4 12.8-51.2 0s-12.8-38.4 0-51.2l147.2-147.2c6.4-6.4 19.2-12.8 25.6-12.8h12.8c12.8 6.4 25.6 19.2 25.6 38.4 0 275.2-230.4 505.6-512 505.6v0zM512 729.6c-96 0-172.8-76.8-172.8-166.4v-44.8c-25.6-6.4-51.2-25.6-51.2-57.6v-211.2c0-32 32-57.6 64-57.6h320c32 0 57.6 25.6 57.6 57.6v211.2c0 32-25.6 51.2-51.2 57.6v44.8c0 89.6-70.4 166.4-166.4 166.4v0zM403.2 563.2c0 57.6 44.8 102.4 108.8 102.4 57.6 0 108.8-44.8 108.8-102.4v-44.8h-217.6v44.8zM665.6 256l-313.6-6.4v211.2h313.6v-204.8z" />
<glyph unicode="&#xe931;" glyph-name="icon-start" d="M478.008 239.801c-165.71 0-299.552 133.842-299.552 299.552s133.842 299.552 299.552 299.552c165.71 0 299.552-133.842 299.552-299.552s-133.842-299.552-299.552-299.552v0zM720.465 21.245l258.921 258.921 44.614-44.614-299.552-299.552-9.646 9.646-176.838 143.2 39.216 48.428 143.284-116.029zM478.008 775.17c-133.842 0-242.191-108.349-242.191-242.191s108.349-242.191 242.191-242.191c133.842 0 242.191 108.349 242.191 242.191 0 140.216-108.349 242.191-242.191 242.191zM573.61-59.751h-484.382c-50.988 0-89.228 38.241-89.228 89.228v841.295c0 50.988 38.241 89.228 89.228 89.228h841.295c50.988 0 89.228-38.241 89.228-89.228v-478.008h-57.361v478.008c0 19.12-12.747 31.867-31.867 31.867h-841.295c-19.12 0-31.867-12.747-31.867-31.867v-841.295c0-19.12 12.747-31.867 31.867-31.867h484.382v-57.361z" />
<glyph unicode="&#xe932;" glyph-name="icon-ban" d="M480 236.8c-166.4 0-300.8 134.4-300.8 300.8s134.4 300.8 300.8 300.8c166.4 0 300.8-134.4 300.8-300.8s-134.4-300.8-300.8-300.8v0zM707.99 23.19l264.81 264.81 44.8-44.8-300.8-300.8-1.857 1.857-8.257-8.257-186.718 186.718 45.072 43.422 142.95-142.95zM480 774.4c-134.4 0-243.2-108.8-243.2-243.2s108.8-243.2 243.2-243.2c134.4 0 243.2 108.8 243.2 243.2 0 140.8-108.8 243.2-243.2 243.2zM612.113 369.822l-239.885 299.866 44.98 35.983 239.885-299.866-44.98-35.983zM576-64h-486.4c-51.2 0-89.6 38.4-89.6 89.6v844.8c0 51.2 38.4 89.6 89.6 89.6h844.8c51.2 0 89.6-38.4 89.6-89.6v-480h-57.6v480c0 19.2-12.8 32-32 32h-844.8c-19.2 0-32-12.8-32-32v-844.8c0-19.2 12.8-32 32-32h486.4v-57.6z" />
<glyph unicode="&#xe933;" glyph-name="icon-menu" d="M227.556 675.556h-113.444c-31.636 0-57.222-25.595-57.222-57.222v-568.222c0-31.636 25.595-57.222 57.222-57.222h568.222c31.636 0 57.222 25.595 57.222 57.222v170.333h170.333c31.636 0 57.222 25.595 57.222 57.222v568.222c0 31.636-25.595 57.222-57.222 57.222h-568.222c-31.636 0-57.222-25.595-57.222-57.222v-170.333h-56.889zM227.556 732.444v113.444c0 63.022 51.033 114.111 114.111 114.111h568.222c63.022 0 114.111-51.033 114.111-114.111v-568.222c0-63.022-51.033-114.111-114.111-114.111h-113.444v-113.444c0-63.022-51.033-114.111-114.111-114.111h-568.222c-63.022 0-114.111 51.033-114.111 114.111v568.222c0 63.022 51.033 114.111 114.111 114.111h113.444zM227.556 675.556l56.889 56.889v-455.133c0-31.664 25.272-56.867 56.867-56.867h455.133l-56.889-56.889v455.133c0 31.664-25.272 56.867-56.867 56.867h-455.133zM682.689 732.444c62.826 0 113.756-50.485 113.756-113.756v-455.133h-455.133c-62.826 0-113.756 50.485-113.756 113.756v455.133h455.133z" />
<glyph unicode="&#xe934;" glyph-name="icon-choose" d="M0 824.021c0 75.099 60.989 135.979 135.979 135.979h752.041c75.099 0 135.979-60.989 135.979-135.979v-752.041c0-75.099-60.989-135.979-135.979-135.979h-752.041c-75.099 0-135.979 60.989-135.979 135.979v752.041zM819.2 345.6h68.267v136.533h-750.933v-136.533h682.667z" />
<glyph unicode="&#xe935;" glyph-name="icon-third-party" d="M660.708 34.477c-39.517-13.169-81.6-20.282-125.267-20.282-181.543 0-335.753 122.817-391.483 293.647 30.235 17.349 50.748 51.051 50.748 89.787 0 56.47-43.588 102.25-97.353 102.25s-97.353-45.779-97.353-102.25c0-46.399 29.437-85.557 69.758-98.056 60.784-209.573 246.265-362.064 465.683-362.064 57.899 0 113.431 10.626 164.938 30.106-19.268 17.083-33.412 40.336-39.671 66.861v0zM1022.206 448.754c0 109.719-32.913 211.362-88.93 294.644-12.422-22.873-31.374-41.321-54.19-52.554 44.271-69.184 70.105-152.466 70.105-242.089 0-107.023-36.837-205.008-97.921-280.736 2.267-1.767 4.463-3.628 6.606-5.552-9.561 3.297-19.765 5.105-30.376 5.105-53.766 0-97.353-45.779-97.353-102.25s43.588-102.248 97.353-102.248 97.353 45.779 97.353 102.248c0 20.577-5.809 39.72-15.767 55.76 70.615 88.727 113.119 202.984 113.119 327.672v0zM876.177 832.189c0 56.47-43.587 102.25-97.352 102.25-18.993 0-36.702-5.733-51.683-15.613-58.83 26.499-123.633 41.174-191.7 41.174-228.609 0-420.403-165.521-472.682-388.682 10.966 3.41 22.575 5.249 34.594 5.249 14.192 0 27.812-2.56 40.476-7.25 49.758 181.347 208.934 313.997 397.612 313.997 52.296 0 102.323-10.199 148.386-28.794-1.526-7.19-2.357-14.657-2.357-22.33 0-56.47 43.587-102.248 97.353-102.248 53.766-0.002 97.352 45.778 97.352 102.247zM284.444 448c0 125.675 101.88 227.556 227.556 227.556s227.556-101.88 227.556-227.556c0-125.675-101.88-227.556-227.556-227.556s-227.556 101.88-227.556 227.556zM682.667 448c0 94.257-76.41 170.667-170.667 170.667s-170.667-76.41-170.667-170.667c0-94.257 76.41-170.667 170.667-170.667s170.667 76.41 170.667 170.667z" />
<glyph unicode="&#xe936;" glyph-name="icon-apk-menu" d="M0 903.111c0 31.419 25.312 56.889 56.513 56.889h910.973c31.211 0 56.513-25.251 56.513-56.889 0-31.419-25.313-56.889-56.513-56.889h-910.973c-31.211 0-56.513 25.251-56.513 56.889zM0 448c0 31.419 25.597 56.889 57.278 56.889h681.888c31.634 0 57.278-25.251 57.278-56.889 0-31.419-25.597-56.889-57.278-56.889h-681.888c-31.634 0-57.278 25.251-57.278 56.889zM0-7.111c0 31.419 25.312 56.889 56.513 56.889h910.973c31.211 0 56.513-25.251 56.513-56.889 0-31.419-25.313-56.889-56.513-56.889h-910.973c-31.211 0-56.513 25.251-56.513 56.889zM967.111 391.111c31.419 0 56.889 25.47 56.889 56.889s-25.47 56.889-56.889 56.889c-31.419 0-56.889-25.47-56.889-56.889s25.47-56.889 56.889-56.889z" />
<glyph unicode="&#xe937;" glyph-name="icon-leisure" d="M819.757 124.13c77.784 21.98 141.892 153.803 141.892 236.276 0 62.745-35.993 76.618-141.892 78.11v-314.386zM819.757 501.485c92.675-0.74 204.899-10.568 204.899-141.079 0.001-112.932-87.93-283.986-207.743-300.941-11.44-88.087-58.51-123.576-161.106-123.576h-504.063c-129.045 0-151.089 61.075-151.089 172.651v444.913c0 17.363 12.537 27.021 29.934 27.021h756.095c17.397 0 33.071-9.657 33.071-27.021v-51.969zM63.664 517.59v-409.049c0-94.505 7.646-109.767 88.081-109.767h504.063c84.512 0 100.941 20.174 100.941 109.767v409.049h-693.085zM120.487 285.101c-4.164 0-8.327 1.763-11.379 4.674-2.881 3.054-4.65 7.239-4.65 11.441 0 4.343 1.769 8.528 4.65 11.441 5.933 5.965 16.826 5.965 22.759 0 2.88-3.071 4.648-7.099 4.648-11.441 0-4.202-1.769-8.388-4.648-11.441-3.036-2.911-7.215-4.674-11.379-4.674zM226.613 52.94c-89.266 0-115.693 27.243-115.693 116.597v53.768c0 8.691 7.045 15.721 15.752 15.721 8.691 0 15.752-7.031 15.752-15.721v-53.768c0-72.435 11.922-85.161 84.19-85.161 8.692 0 15.752-7.033 15.752-15.723 0-8.687-7.060-15.713-15.752-15.713zM296.483 631.923c-9.076 0-18.090 3.9-24.321 11.423-11.075 13.388-9.168 33.209 4.246 44.263 24.505 20.205 39.333 41.054 39.657 55.793 0.093 4.943-1.124 12.758-12.952 23.383-32.935 29.569-101.465 91.119-36.796 180.121 10.23 14.064 29.92 17.18 43.994 7.001 14.091-10.195 17.228-29.862 7.015-43.909-25.228-34.728-19.751-53.659 27.934-96.478 28.643-25.731 34.181-53.060 33.796-71.452-0.739-34.253-22.367-69.841-62.53-102.941-5.876-4.838-12.983-7.203-20.043-7.203zM485.506 631.923c-9.076 0-18.090 3.9-24.321 11.423-11.075 13.388-9.167 33.209 4.246 44.263 24.506 20.205 39.333 41.054 39.657 55.793 0.093 4.943-1.122 12.758-12.952 23.383-32.934 29.569-101.465 91.119-36.795 180.121 10.213 14.064 29.92 17.18 43.996 7.001 14.090-10.195 17.227-29.862 7.014-43.909-25.228-34.728-19.752-53.659 27.934-96.478 28.643-25.731 34.181-53.060 33.795-71.452-0.738-34.253-22.367-69.841-62.529-102.941-5.877-4.838-12.984-7.203-20.044-7.203z" />
<glyph unicode="&#xe938;" glyph-name="icon-choice" d="M960 448c0 247.424-200.576 448-448 448s-448-200.576-448-448c0-247.424 200.576-448 448-448s448 200.576 448 448zM0 448c0 282.77 229.23 512 512 512s512-229.23 512-512c0-282.77-229.23-512-512-512s-512 229.23-512 512zM512 192c141.385 0 256 114.615 256 256s-114.615 256-256 256c-141.385 0-256-114.615-256-256s114.615-256 256-256z" />
<glyph unicode="&#xe939;" glyph-name="icon-rank" horiz-adv-x="569" d="M0 334.222h568.889l-284.444-398.222-284.444 398.222zM568.889 561.778h-568.889l284.444 398.222 284.444-398.222z" />
<glyph unicode="&#xe93a;" glyph-name="icon-sign" d="M178.047 656.32h253.628c11.893 0 21.534 10.733 21.534 23.974v12.43c0 13.241-9.641 23.974-21.534 23.974h-253.628c-11.892 0-21.534-10.733-21.534-23.974v-12.43c0-13.241 9.642-23.974 21.534-23.974v0zM431.676 242.536h-253.629c-11.892 0-21.534-10.733-21.534-23.974v-12.43c0-13.241 9.642-23.974 21.534-23.974h253.628c11.893 0 21.534 10.733 21.534 23.974v12.43c0.001 13.241-9.639 23.974-21.533 23.974v0zM157.121 574.184v-12.43c0-13.241 9.641-23.974 21.534-23.974h559.896c11.892 0 21.534 10.733 21.534 23.974v12.43c0 13.241-9.642 23.974-21.534 23.974h-559.896c-11.893 0.001-21.534-10.732-21.534-23.974v0zM1011.747 681.63l-10.815 9.005c-13.099 10.907-31.585 8.371-41.919-5.752l-40.128-54.84v240.223c0 49.559-36.052 89.734-80.522 89.734h-757.842c-44.47 0-80.522-40.176-80.522-89.734v-844.532c0-49.557 36.052-89.733 80.522-89.733h757.842c44.47 0 80.522 40.176 80.522 89.733v472.893l98.246 134.266c10.973 14.996 8.523 37.156-5.385 48.738v0zM738.552 479.618h-559.896c-11.893 0-21.534-10.733-21.534-23.974v-12.43c0-13.241 9.641-23.974 21.534-23.974h559.896c11.892 0 21.534 10.733 21.534 23.974v12.43c0.001 13.241-9.642 23.974-21.534 23.974zM866.728 73.667c0-43.93-31.959-79.547-71.38-79.547h-671.808c-39.423 0-71.382 35.617-71.382 79.547v748.66c0 43.93 31.959 79.546 71.382 79.546h671.808c39.422 0 71.38-35.616 71.38-79.546v-263.566l-145.878-199.361h-541.868c-11.915 0-21.573-10.763-21.573-24.041v-12.465c0-13.278 9.658-24.041 21.573-24.041h497.562l-101.469-138.672-17.835-96.038 77.589 46.282 231.898 316.921v-353.679z" />
<glyph unicode="&#xe93b;" glyph-name="icon-spread" d="M512-41.739c270.475 0 489.739 219.264 489.739 489.739s-219.264 489.739-489.739 489.739c-270.475 0-489.739-219.264-489.739-489.739s219.264-489.739 489.739-489.739zM512 2.783c-245.887 0-445.217 199.331-445.217 445.217s199.331 445.217 445.217 445.217c245.887 0 445.217-199.331 445.217-445.217s-199.331-445.217-445.217-445.217zM289.391 603.826h445.217l-222.609-311.652-222.609 311.652z" />
<glyph unicode="&#xe93c;" glyph-name="icon-checkbox" d="M51.2 12.966c0-14.283 11.493-25.766 25.766-25.766h870.067c14.283 0 25.766 11.493 25.766 25.766v870.067c0 14.283-11.493 25.766-25.766 25.766h-870.067c-14.283 0-25.766-11.493-25.766-25.766v-870.067zM412.444 200.533l-19.911-19.911-256 284.444 85.333 85.333 186.643-207.381 387.935 412.181 85.333-85.333-455.111-483.556-14.222 14.222zM76.966 960h870.067c42.507 0 76.966-34.363 76.966-76.966v-870.067c0-42.507-34.363-76.966-76.966-76.966h-870.067c-42.507 0-76.966 34.363-76.966 76.966v870.067c0 42.507 34.363 76.966 76.966 76.966z" />
<glyph unicode="&#xe93d;" glyph-name="icon-deitbox" d="M958.922 611.53v-490.594c0-66.077-53.763-119.836-119.836-119.836h-654.174c-66.073 0-119.836 53.758-119.836 119.836v654.17c0 66.077 53.763 119.836 119.836 119.836h490.657c11.254 0 20.336 9.102 20.336 20.341 0 11.235-9.083 20.336-20.336 20.336h-490.657c-88.526 0-160.532-72.007-160.532-160.531v-654.216c0-88.483 72.007-160.508 160.532-160.508h654.216c88.483 0 160.508 72.026 160.49 160.508v490.657c-0.001 11.235-9.107 20.359-20.36 20.359s-20.336-9.124-20.336-20.358zM285.444 366.089c-0.61-0.874-1.442-1.506-1.949-2.501l-116.825-233.613c-3.902-7.821-2.358-17.27 3.836-23.488 3.883-3.859 9.107-5.952 14.408-5.952 3.088 0 6.216 0.712 9.101 2.154l233.618 116.766c1.157 0.567 1.948 1.543 2.943 2.296 0.754 0.549 1.646 0.851 2.339 1.544l443.798 443.842c0.042 0.043 0.102 0.043 0.144 0.085 0.043 0.037 0.061 0.098 0.102 0.139l67.128 67.133c17.109 17.085 26.559 39.801 26.559 63.956 0 24.159-9.451 46.853-26.559 63.962l-17.694 17.675c-17.067 17.11-39.766 26.498-63.92 26.498-24.159 0-46.833-9.389-63.919-26.498l-511.197-511.193c-0.856-0.814-1.261-1.893-1.912-2.805zM307.288 320.172l76.922-76.903-153.826-76.904 76.904 153.807zM827.302 851.298c18.816 18.797 51.503 18.834 70.319 0l17.699-17.653c9.403-9.39 14.608-21.904 14.608-35.171 0-13.291-5.205-25.787-14.608-35.19l-52.87-52.87-88.019 88.037 52.87 52.848zM745.665 769.661l88.019-88.038-415.136-415.153-88.037 88.061 415.154 415.13z" />
<glyph unicode="&#xe93e;" glyph-name="icon-inputbox" d="M141.652 218.005c-14.138 0-25.6 7.064-25.6 15.778v480.445c0 5.637 4.879 10.845 12.8 13.664s17.679 2.818 25.6 0c7.921-2.818 12.8-8.027 12.8-13.664v-480.445c0-8.714-11.462-15.778-25.6-15.778v0zM216.077 198.36c-14.091 0-25.682 11.461-25.682 25.6s11.248 25.6 25.347 25.6h0.343c14.091-0.002 25.513-11.465 25.511-25.604s-11.427-25.598-25.518-25.596v0zM290.41 198.36c-14.091 0-25.682 11.461-25.682 25.6s11.248 25.6 25.347 25.6h0.343c14.091-0.002 25.513-11.465 25.511-25.604s-11.427-25.598-25.518-25.596v0zM989.178 64h-954.434c-20.78 0-34.744 18.719-34.744 46.58v674.933c0 27.807 13.963 46.487 34.744 46.487h954.444c20.826 0 34.813-18.681 34.813-46.487l-0.009-674.933c0-27.861-13.986-46.58-34.813-46.58v0zM364.743 198.36c-14.091 0-25.682 11.461-25.682 25.6s11.255 25.6 25.347 25.6h0.343c14.091-0.002 25.513-11.465 25.511-25.604s-11.427-25.598-25.518-25.596v0zM52.637 119.007c0.018 0 0.356-0.15 1.152-0.15h916.347c0.905 0 1.24 0.191 1.24 0.191 0.277 0.289 1.415 2.546 1.415 7.969l0.009 642.059c0 5.376-1.138 7.587-1.442 7.886-0.009 0-0.343 0.181-1.213 0.181h-916.356c-0.901 0-1.244-0.186-1.248-0.191-0.242-0.279-1.341-2.556-1.341-7.881v-642.059c0-5.392 1.13-7.674 1.437-8.005z" />
<glyph unicode="&#xe93f;" glyph-name="icon-textbox" d="M951.14 189.908v515.772c42.599 23.594 72.86 67.215 72.86 117.558 0 75.445-65.662 136.762-146.307 136.762-54.057 0-100.769-28.258-126.035-68.038h-479.316c-25.266 39.78-71.978 68.038-125.888 68.038-80.792 0-146.454-61.317-146.454-136.625 0-50.48 30.26-94.101 72.86-117.695v-515.909c-42.599-23.594-72.86-67.215-72.86-117.558 0-75.445 65.662-136.213 146.307-136.213 54.057 0 100.769 27.435 126.035 68.587h479.316c25.266-41.152 71.978-68.587 125.888-68.587 80.792 0 146.454 61.042 146.454 136.35 0 50.48-30.26 93.827-72.86 117.558v0zM219.607 518.522h218.872v-341.562h146.894v341.562h218.872v137.173h-584.639v-137.173zM731.24 71.802h-438.626c0 75.445-65.662 137.036-146.454 137.036v477.912c80.792 0 146.454 61.317 146.454 136.762h438.773c0-75.445 65.662-136.762 146.454-136.762v-477.912c-80.939 0-146.6-61.591-146.6-137.036v0z" />
<glyph unicode="&#xe940;" glyph-name="icon-d-list" d="M910.222 960h-796.444c-62.578 0-113.778-51.203-113.778-113.785v-796.497c0-62.582 51.2-113.785 113.778-113.785h796.444c62.578 0 113.778 51.203 113.778 113.785v796.497c0 62.582-51.2 113.785-113.778 113.785zM870.4 652.711h-716.8l358.4-409.6 358.4 409.6zM967.111 49.718c0-34.136-22.756-56.893-56.889-56.893h-796.444c-34.133 0-56.889 22.757-56.889 56.893v796.497c0 34.136 22.756 56.893 56.889 56.893h796.444c34.133 0 56.889-22.757 56.889-56.893v-796.497z" />
<glyph unicode="&#xe941;" glyph-name="icon-info" d="M51.2 12.966c0-14.283 11.493-25.766 25.766-25.766h870.067c14.283 0 25.766 11.493 25.766 25.766v870.067c0 14.283-11.493 25.766-25.766 25.766h-870.067c-14.283 0-25.766-11.493-25.766-25.766v-870.067zM76.966 960h870.067c42.507 0 76.966-34.363 76.966-76.966v-870.067c0-42.507-34.363-76.966-76.966-76.966h-870.067c-42.507 0-76.966 34.363-76.966 76.966v870.067c0 42.507 34.363 76.966 76.966 76.966zM179.258 435.157c0 15.682-0.043 31.406 0 47.088 0.173 30.888 21.038 51.71 51.795 51.71h94.691c28.554-0.043 50.154-19.958 50.758-48.514 0.734-33.437 0.734-66.874 0-100.31-0.605-28.555-22.204-48.643-50.672-48.686-31.924-0.043-63.804-0.043-95.728 0-29.159 0-50.499 20.952-50.845 50.069-0.13 16.243 0 32.443 0 48.643zM179.258 188.312c0 15.854-0.086 31.752 0 47.606 0.173 30.413 21.254 51.235 51.752 51.235h94.173c29.807 0 51.19-20.822 51.45-50.587 0.302-32.054 0.259-64.152 0-96.25-0.259-29.851-21.556-50.674-51.32-50.674h-95.21c-29.245 0-50.499 20.866-50.845 50.026-0.13 16.2 0 32.443 0 48.643zM660.707 410.533h-182.687c-12.614 0-21.211 5.27-25.358 15.336-6.005 14.602 2.894 30.845 18.446 33.523 2.506 0.432 5.097 0.562 7.646 0.562 121.302 0.043 242.604 0.043 363.862 0 15.076 0 24.926-7.517 27.388-20.779 2.376-12.744-6.609-25.834-19.439-28.080-2.981-0.518-6.091-0.562-9.158-0.562h-180.7zM660.923 213.066h182.212c13.435 0 23.068-6.566 26.265-17.712 4.147-14.386-5.011-28.814-19.828-31.234-2.333-0.389-4.752-0.475-7.128-0.475-121.302 0-242.604-0.043-363.862 0-14.472 0-24.148 6.912-27.129 19.267-3.326 13.738 6.177 27.778 20.174 29.722 2.678 0.389 5.443 0.432 8.165 0.432h181.132zM660.707 657.507h-183.206c-12.744 0-21.902 6.048-25.444 16.632-5.184 15.466 5.486 31.277 22.075 32.616 1.512 0.13 3.067 0.086 4.622 0.086h363.862c15.076 0 24.882-7.517 27.388-20.779 2.506-13.349-7.473-26.827-20.951-28.296-2.376-0.259-4.752-0.259-7.171-0.259-60.392-0.043-120.783 0-181.175 0zM253.775 668.048c9.72 9.806 19.31 19.483 28.943 29.16 24.969 24.97 49.938 49.939 74.906 74.909 11.059 11.016 26.308 11.578 36.416 1.426 9.979-10.066 9.504-25.229-1.296-36.072-40.304-40.349-80.566-80.611-120.87-120.874-11.361-11.362-25.79-11.362-37.151-0.086-15.854 15.725-31.708 31.493-47.475 47.347-10.411 10.411-10.67 25.79-0.734 35.64 10.022 10.022 24.969 9.72 35.639-0.821 10.108-9.936 20.087-19.958 30.109-29.938 0.216-0.216 0.605-0.259 1.512-0.691z" />
<glyph unicode="&#xe942;" glyph-name="icon-pause" d="M512 960c-282.752 0-512-229.248-512-512s229.248-512 512-512c282.752 0 512 229.248 512 512s-229.248 512-512 512zM512-16c-256.256 0-464 207.744-464 464s207.744 464 464 464c256.256 0 464-207.744 464-464s-207.744-464-464-464zM653.84 487.728l-243.264 158.944c-37.856 21.856-68.816 3.968-68.816-39.728v-317.872c0-43.696 30.96-61.6 68.816-39.728l243.264 158.944c37.856 21.84 37.856 57.584 0 79.44z" />
<glyph unicode="&#xe943;" glyph-name="icon-play" horiz-adv-x="740" d="M288.073 818.765v0c-9.482 7.782-18.884 12.826-30.796 12.826-20.443 0-37.029-16.282-37.029-36.352 0-18.253 10.776-23.27 31.615-35.814 84.967-83.814 137.817-198.963 137.817-326.502 0-125.184-50.79-238.566-132.983-322.022v0c-8.874-7.834-36.448-22.016-36.448-42.086s16.587-36.352 37.029-36.352c20.469 0 46.141 25.114 52.137 33.024v0 0c92.864 95.155 150.019 224.128 150.019 366.259 0.026 152.755-65.95 290.33-171.359 387.021v0zM61.513 677.734v0c-16.085 7.808-23.823 5.837-32.381 5.018-18.435-1.741-28.921-16.154-28.921-36.25 0-19.533 12.73-22.579 35.207-40.013 46.432-44.186 75.511-105.779 75.511-174.234 0-66.637-27.653-126.669-71.866-170.624-24.299-15.206-39.063-16.077-39.063-36.147s16.587-36.352 37.029-36.352c17.009 0 31.721 5.478 44.9 17.382v0c61.275 57.011 99.678 137.446 99.678 226.816 0.026 98.97-46.96 187.059-120.094 244.403v0zM568.46 933.504c-9.244 14.618-21.71 26.496-39.116 26.496-20.469 0-33.833-15.053-33.833-35.123 0-13.491 6.735-21.222 16.534-33.254v0c96.112-123.546 153.294-277.786 153.294-445.184 0-168.883-58.264-324.275-155.909-448.384-5.758-6.579-9.376-15.027-9.376-24.397 0-20.813 17.194-37.658 38.403-37.658 16.824 0 30.955 10.675 36.158 25.446 103.349 134.118 164.941 300.928 164.941 482.022 0 184.678-63.996 354.56-171.095 490.035v0z" />
<glyph unicode="&#xe944;" glyph-name="icon-10" d="M512-32c265.097 0 480 214.903 480 480s-214.903 480-480 480c-265.097 0-480-214.903-480-480s214.903-480 480-480zM512 32c-229.75 0-416 186.25-416 416s186.25 416 416 416c229.75 0 416-186.25 416-416s-186.25-416-416-416zM257.024 721.922h108.288v-551.424h-54.528v497.664h-86.784l33.024 53.76zM633.088 156.928c-59.392 0-105.088 24.448-137.088 73.344s-48 120.96-48 216.192c0 95.232 16 167.296 48 216.192s77.44 73.344 136.32 73.344c58.88 0 105.6-24.96 140.16-74.88s51.84-121.472 51.84-214.656c0-93.184-17.408-164.736-52.224-214.656s-81.152-74.88-139.008-74.88zM634.624 683.776c-42.496 0-75.52-20.48-99.072-61.44s-35.328-100.096-35.328-177.408c0-158.721 44.8-238.080 134.4-238.080 43.52 0 77.44 20.864 101.76 62.592s36.48 100.736 36.48 177.024c0 76.288-12.544 134.912-37.632 175.872s-58.624 61.44-100.608 61.44z" />
<glyph unicode="&#xe945;" glyph-name="icon-1" d="M512-32c265.097 0 480 214.903 480 480s-214.903 480-480 480c-265.097 0-480-214.903-480-480s214.903-480 480-480zM512 32c-229.75 0-416 186.25-416 416s186.25 416 416 416c229.75 0 416-186.25 416-416s-186.25-416-416-416zM430.080 693.504h108.288v-551.424h-54.528v497.664h-86.784l33.024 53.76z" />
<glyph unicode="&#xe946;" glyph-name="icon-2" d="M512-32c265.097 0 480 214.903 480 480s-214.903 480-480 480c-265.097 0-480-214.903-480-480s214.903-480 480-480zM512 32c-229.75 0-416 186.25-416 416s186.25 416 416 416c229.75 0 416-186.25 416-416s-186.25-416-416-416zM409.088 552.704h-52.992c2.56 56.32 21.248 101.504 56.064 135.552s76.928 51.072 126.336 51.072c49.408 0 90.368-16 122.88-48s48.768-71.040 48.768-117.12c0-34.304-9.088-66.048-27.264-95.232s-45.696-63.744-82.56-103.68l-137.472-148.224h254.976v-52.992h-374.784l210.432 227.328c36.864 39.936 63.232 71.424 79.104 94.464s23.808 49.408 23.808 79.104c0 29.696-11.648 55.808-34.944 78.336s-52.224 33.792-86.784 33.792c-34.56 0-63.232-11.648-86.016-34.944s-35.968-56.448-39.552-99.456z" />
<glyph unicode="&#xe947;" glyph-name="icon-3" d="M512-32c265.097 0 480 214.903 480 480s-214.903 480-480 480c-265.097 0-480-214.903-480-480s214.903-480 480-480zM512 32c-229.75 0-416 186.25-416 416s186.25 416 416 416c229.75 0 416-186.25 416-416s-186.25-416-416-416zM396.761 598.016h-56.064c10.24 45.568 29.824 80.512 58.752 104.832s64.256 36.48 105.984 36.48c41.728 0 78.080-13.824 109.056-41.472s46.464-61.184 46.464-100.608c0-47.616-23.552-85.248-70.656-112.896 32.256-13.312 57.216-33.152 74.88-59.52s26.496-55.168 26.496-86.4c0-48.64-17.792-90.496-53.376-125.568s-80.512-52.608-134.784-52.608c-48.128 0-87.808 13.696-119.040 41.088s-51.968 67.456-62.208 120.192h53.76c9.728-36.352 24.704-63.36 44.928-81.024s48.768-26.496 85.632-26.496c36.864 0 67.84 11.776 92.928 35.328s37.632 52.736 37.632 87.552c0 34.816-13.824 62.848-41.472 84.096s-67.84 32.384-120.576 33.408v50.688c37.888 0 68.736 8.704 92.544 26.112s35.712 39.040 35.712 64.896c0 25.856-9.6 47.36-28.8 64.512s-42.368 25.728-69.504 25.728c-27.136 0-49.024-7.296-65.664-21.888s-30.848-36.736-42.624-66.432z" />
<glyph unicode="&#xe948;" glyph-name="icon-4" d="M512-64c282.77 0 512 229.23 512 512s-229.23 512-512 512c-282.77 0-512-229.23-512-512s229.23-512 512-512zM512 0c-247.424 0-448 200.576-448 448s200.576 448 448 448c247.424 0 448-200.576 448-448s-200.576-448-448-448zM566.613 749.466h11.469v-409.6h71.27v-56.525h-71.27v-136.806h-58.163v136.806h-281.805l328.499 466.125zM519.919 339.866v244.941l-173.67-244.941h173.67z" />
<glyph unicode="&#xe949;" glyph-name="icon-5" d="M512-32c265.097 0 480 214.903 480 480s-214.903 480-480 480c-265.097 0-480-214.903-480-480s214.903-480 480-480zM512 32c-229.75 0-416 186.25-416 416s186.25 416 416 416c229.75 0 416-186.25 416-416s-186.25-416-416-416zM665.856 693.504v-52.224h-196.608l-27.648-150.528c24.576 7.168 47.616 10.752 69.12 10.752 48.128 0 88.32-17.024 120.576-51.072s48.384-77.696 48.384-130.944c0-53.248-17.536-98.432-52.608-135.552s-81.536-55.68-139.392-55.68c-44.032 0-81.536 13.184-112.512 39.552s-49.536 62.336-55.68 107.904h56.064c6.656-30.72 20.48-54.272 41.472-70.656s45.312-24.576 72.96-24.576c36.352 0 67.712 13.568 94.080 40.704s39.552 60.928 39.552 101.376c0 36.864-11.52 67.2-34.56 91.008s-53.12 35.712-90.24 35.712c-37.12 0-78.208-9.728-123.264-29.184l51.456 273.408h238.848z" />
<glyph unicode="&#xe94a;" glyph-name="icon-6" d="M552.625 734.405l45.312-29.184-148.992-225.792c20.992 7.168 40.96 10.752 59.904 10.752 40.96 0 76.8-16.256 107.52-48.768s46.080-72.192 46.080-119.040c0-46.848-16.768-86.4-50.304-118.656s-74.24-48.384-122.112-48.384c-47.872 0-87.808 16.384-119.808 49.152s-48 72.704-48 119.808c0 22.528 4.352 45.696 13.056 69.504s25.344 54.144 49.92 91.008l167.424 249.6zM512-32c265.097 0 480 214.903 480 480s-214.903 480-480 480c-265.097 0-480-214.903-480-480s214.903-480 480-480zM607.921 325.061c0 32.256-11.264 59.648-33.792 82.176s-49.92 33.792-82.176 33.792c-32.256 0-59.648-11.264-82.176-33.792s-33.792-49.92-33.792-82.176c0-32.256 11.392-59.648 34.176-82.176s50.048-33.792 81.792-33.792c31.744 0 59.008 11.264 81.792 33.792s34.176 49.92 34.176 82.176zM512 32c-229.75 0-416 186.25-416 416s186.25 416 416 416c229.75 0 416-186.25 416-416s-186.25-416-416-416z" />
<glyph unicode="&#xe94b;" glyph-name="icon-7" d="M512-32c265.097 0 480 214.903 480 480s-214.903 480-480 480c-265.097 0-480-214.903-480-480s214.903-480 480-480zM375.296 693.504h349.44l-294.912-565.248-45.312 23.040 254.976 489.984h-264.192v52.224zM512 32c-229.75 0-416 186.25-416 416s186.25 416 416 416c229.75 0 416-186.25 416-416s-186.25-416-416-416z" />
<glyph unicode="&#xe94c;" glyph-name="icon-8" d="M512-32c265.097 0 480 214.903 480 480s-214.903 480-480 480c-265.097 0-480-214.903-480-480s214.903-480 480-480zM512 32c-229.75 0-416 186.25-416 416s186.25 416 416 416c229.75 0 416-186.25 416-416s-186.25-416-416-416zM590.297 471.749c69.632-34.304 104.448-82.432 104.448-144.384 0-49.152-17.28-90.112-51.84-122.88s-79.872-49.152-135.936-49.152c-56.064 0-100.992 16.384-134.784 49.152s-50.688 72.192-50.688 118.272c0 64.512 35.584 114.176 106.752 148.992-53.76 28.672-80.64 68.352-80.64 119.040 0 37.888 15.744 71.296 47.232 100.224s69.504 43.392 114.048 43.392c44.544 0 82.432-14.080 113.664-42.24s46.848-62.464 46.848-102.912c0-49.152-26.368-88.32-79.104-117.504zM614.105 591.557c0 24.576-9.6 45.696-28.8 63.36s-44.288 26.496-75.264 26.496c-30.976 0-56.448-8.832-76.416-26.496s-29.952-39.040-29.952-64.128c0-25.088 10.88-47.488 32.64-67.2s46.464-29.568 74.112-29.568c27.648 0 51.84 9.728 72.576 29.184s31.104 42.24 31.104 68.352zM639.449 326.597c0 31.232-12.672 58.624-38.016 82.176s-56.064 35.328-92.16 35.328c-36.096 0-67.2-12.16-93.312-36.48s-39.168-52.992-39.168-86.016c0-33.024 12.032-60.288 36.096-81.792s55.552-32.256 94.464-32.256c38.912 0 70.656 11.52 95.232 34.56s36.864 51.2 36.864 84.48z" />
<glyph unicode="&#xe94d;" glyph-name="icon-9" d="M512-32c265.097 0 480 214.903 480 480s-214.903 480-480 480c-265.097 0-480-214.903-480-480s214.903-480 480-480zM512 32c-229.75 0-416 186.25-416 416s186.25 416 416 416c229.75 0 416-186.25 416-416s-186.25-416-416-416zM442.841 155.333l-45.312 29.184 148.992 225.792c-19.456-6.656-38.656-9.984-57.6-9.984-44.032 0-81.024 15.872-110.976 47.616s-44.928 71.296-44.928 118.656c0 47.36 16.64 87.168 49.92 119.424s74.112 48.384 122.496 48.384c48.384 0 88.32-16.512 119.808-49.536s47.232-72.576 47.232-118.656c0-25.6-5.248-51.328-15.744-77.184s-25.984-53.888-46.464-84.096l-167.424-249.6zM386.777 564.677c0-32.256 11.264-59.648 33.792-82.176s49.92-33.792 82.176-33.792c32.256 0 59.648 11.392 82.176 34.176s33.792 50.048 33.792 81.792c0 31.744-11.264 59.008-33.792 81.792s-49.92 34.176-82.176 34.176c-32.256 0-59.648-11.264-82.176-33.792s-33.792-49.92-33.792-82.176z" />
<glyph unicode="&#xe94e;" glyph-name="icon-expense" d="M997.275 571.259v0c15.168 0 28.439-11.378 26.543-28.444v-578.37c0-15.17-13.272-28.444-28.439-28.444h-966.94c-15.168 0-28.439 13.274-28.439 28.444v697.837c0 15.17 13.272 28.444 28.439 28.444h39.815v134.637c0 15.17 13.272 28.444 28.439 28.444h39.815v77.748c0 15.17 13.272 28.444 28.439 28.444h786.824c15.168 0 28.439-13.274 28.439-28.444v-360.296h17.064zM193.388 903.111v-49.304h646.523c15.168 0 28.439-13.274 28.439-28.444v-254.104h53.087v331.852h-728.049zM127.029 796.919v-108.089h166.845c7.584 0 13.272-1.896 18.96-7.585l119.446-109.985h381.088v225.659h-686.338zM511.975-7.111h456.861v523.378h-549.829c-7.584 0-13.272 1.896-18.96 7.585l-119.446 109.985h-221.827v-640.948h453.2c125.18 0 227.58 102.4 227.58 227.556s-102.4 227.556-227.556 227.556c-125.156 0-227.556-102.4-227.556-227.556 0-125.147 102.387-227.542 227.531-227.556zM512 391.111c94.815 0 170.667-75.852 170.667-170.667s-75.852-170.667-170.667-170.667c-94.815 0-170.667 75.852-170.667 170.667s75.852 170.667 170.667 170.667zM588.39 334.222h37.387l-93.699-113.778h80.314v-18.065h-84.468v-23.77h84.468v-18.382h-84.468v-53.561h-32.31v53.561h-83.545v18.382h83.545v23.77h-83.545v18.065h79.391l-93.238 113.778h37.849l75.698-93.177 76.621 93.177z" />
<glyph unicode="&#xe94f;" glyph-name="icon-switch" d="M512 387.441c58.935 0 106.82 47.713 106.82 106.437s-47.885 106.437-106.82 106.437c-58.935 0-106.82-47.713-106.82-106.437 3.683-58.724 51.568-106.437 106.82-106.437v0zM512 556.272c36.835 0 62.619-29.362 62.619-62.394s-29.468-62.394-62.619-62.394c-36.835 0-62.619 29.362-62.619 62.394s29.468 62.394 62.619 62.394v0zM512 960c-279.942 0-512-227.556-512-510.165 0-179.842 95.77-348.674 254.158-440.43l22.101 36.703c-143.655 84.416-232.058 238.566-232.058 403.728 0 256.918 209.957 466.122 467.799 466.122s467.799-209.204 467.799-466.122c0-168.832-92.086-322.982-235.741-407.398l22.101-36.703c158.388 91.756 257.842 260.588 257.842 444.1 0 282.609-228.374 510.165-512 510.165v0zM515.683 769.147c-176.806 0-320.46-143.14-320.46-319.312 0-110.108 58.935-216.545 154.705-275.269l22.101 36.703c-84.719 51.384-136.288 139.47-136.288 238.566 0 154.151 125.237 275.269 276.259 275.269 154.705 0 276.259-124.789 276.259-275.269 0-99.097-55.252-190.853-139.971-238.566l22.101-36.703c99.453 55.054 162.072 161.491 162.072 278.939 0 172.502-143.655 315.642-316.777 315.642v0zM512 365.419c-33.151 0-66.302-14.681-88.403-40.373s-33.151-58.724-29.468-91.756l36.835-297.29h158.388l36.835 297.29c3.683 33.032-7.367 66.065-29.468 91.756-18.417 25.692-51.568 40.373-84.719 40.373v0zM585.669 240.631l-29.468-256.918h-84.719l-29.468 256.918c-3.683 22.022 3.683 40.373 18.417 58.724 14.734 14.681 33.151 25.692 55.252 25.692s40.518-7.341 55.252-25.692c11.050-14.681 18.417-36.703 14.734-58.724v0z" />
<glyph unicode="&#xe950;" glyph-name="icon-up" d="M512 960c282.4 0 512-229.6 512-512s-229.6-512-512-512c-282.4 0-512 229.6-512 512s229.6 512 512 512zM552 723.2c-10.4 10.4-24.8 16-39.2 16-7.2 0-14.4-1.6-20.8-4-1.6-0.8-3.2-1.6-4-2.4-4-2.4-8-4.8-12-8l-4-3.2-195.2-194.4c-21.6-21.6-21.6-56 0-77.6 10.4-10.4 24-16 38.4-16s28.8 5.6 38.4 16l102.4 100.8v-338.4c0-30.4 24.8-55.2 55.2-55.2s55.2 24.8 55.2 55.2v340l103.2-104c10.4-10.4 24.8-16 39.2-16 22.4 0 42.4 13.6 50.4 33.6 8.8 20.8 4 44-12 60l-195.2 197.6z" />
<glyph unicode="&#xe951;" glyph-name="icon-convert" d="M512-63.973c-282.747 0-511.973 229.198-511.973 511.973 0 282.747 229.226 511.973 511.973 511.973s511.973-229.226 511.973-511.973c0-282.775-229.226-511.973-511.973-511.973v0zM512 904.625c-252.195 0-456.625-204.457-456.625-456.625s204.429-456.625 456.625-456.625c252.195 0 456.625 204.457 456.625 456.625s-204.429 456.625-456.625 456.625v0zM598.565 220.324c-10.765-10.71-28.2-10.71-38.938 0s-10.738 28.089 0 38.772l93.982 92.515h-349.332c-15.193 0-27.508 12.26-27.508 27.425s12.315 27.453 27.508 27.453h412.844c2.38 0 4.539-0.775 6.753-1.356 5.673-0.803 11.236-2.906 15.608-7.306 10.765-10.71 10.765-28.089 0-38.772l-140.917-138.731zM719.557 489.511h-415.113c-2.491 0-4.732 0.803-7.029 1.411-5.618 0.858-11.125 2.961-15.47 7.334-10.821 10.821-10.821 28.311 0 39.131l141.72 139.949c10.821 10.821 28.311 10.821 39.131 0 10.821-10.793 10.821-28.311 0-39.131l-94.507-93.345h351.269c15.304 0 27.674-12.398 27.674-27.674 0-15.304-12.37-27.674-27.674-27.674v0z" />
<glyph unicode="&#xe952;" glyph-name="icon-estimate" horiz-adv-x="1092" d="M68.267 824.021v-752.041c0-37.317 30.412-67.713 67.861-67.713h820.011c37.427 0 67.861 30.383 67.861 67.713v752.041c0 37.317-30.412 67.713-67.861 67.713h-820.011c-37.427 0-67.861-30.383-67.861-67.713zM0 824.021c0 75.099 61.065 135.979 136.128 135.979h820.011c75.181 0 136.128-60.989 136.128-135.979v-752.041c0-75.099-61.065-135.979-136.128-135.979h-820.011c-75.181 0-136.128 60.989-136.128 135.979v752.041zM212.992 480.448l54.613 8.192c2.731 0 5.461 2.731 5.461 2.731l24.576 49.152c2.731 5.461 10.923 5.461 10.923 0l24.576-49.152c0-2.731 2.731-2.731 5.461-2.731l54.613-8.192c8.192 0 10.923-8.192 8.192-10.923l-38.229-38.229c-2.731-2.731-2.731-2.731-2.731-5.461l8.192-51.883c0-5.461-5.461-10.923-10.923-8.192l-49.152 24.576h-5.461l-49.152-24.576c-5.461-2.731-10.923 2.731-10.923 8.192l8.192 51.883c0 2.731 0 5.461-2.731 5.461l-38.229 38.229c-2.731 2.731-2.731 10.923 2.731 10.923v0zM401.408 237.419l-38.229-38.229c-2.731-2.731-2.731-2.731-2.731-5.461l8.192-51.883c0-5.461-5.461-10.923-10.923-8.192l-49.152 24.576h-5.461l-49.152-24.576c-5.461-2.731-10.923 2.731-10.923 8.192l8.192 51.883c0 2.731 0 5.461-2.731 5.461l-32.768 38.229c-2.731 2.731-2.731 10.923 2.731 10.923l54.613 8.192c2.731 0 5.461 2.731 5.461 2.731l24.576 49.152c2.731 5.461 10.923 5.461 10.923 0l24.576-49.152c0-2.731 2.731-2.731 5.461-2.731l54.613-8.192c2.731 0 5.461-8.192 2.731-10.923v0zM401.408 687.979l-38.229-38.229c-2.731-2.731-2.731-2.731-2.731-5.461l8.192-51.883c0-5.461-5.461-10.923-10.923-8.192l-49.152 24.576h-5.461l-49.152-24.576c-5.461-2.731-10.923 2.731-10.923 8.192l8.192 51.883c0 2.731 0 5.461-2.731 5.461l-32.768 38.229c-2.731 5.461-2.731 10.923 2.731 10.923l54.613 8.192c2.731 0 5.461 2.731 5.461 2.731l24.576 49.152c2.731 5.461 10.923 5.461 10.923 0l24.576-49.152c0-2.731 2.731-2.731 5.461-2.731l54.613-8.192c2.731 0 5.461-5.461 2.731-10.923v0zM871.083 171.883h-311.296c-19.115 0-32.768 16.384-32.768 32.768s16.384 32.768 32.768 32.768h311.296c19.115 0 32.768-16.384 32.768-32.768s-13.653-32.768-32.768-32.768zM871.083 398.528h-311.296c-19.115 0-32.768 16.384-32.768 32.768 0 19.115 16.384 32.768 32.768 32.768h311.296c19.115 0 32.768-16.384 32.768-32.768 2.731-16.384-13.653-32.768-32.768-32.768zM871.083 619.712h-311.296c-19.115 0-32.768 16.384-32.768 32.768s16.384 32.768 32.768 32.768h311.296c19.115 0 32.768-16.384 32.768-32.768s-13.653-32.768-32.768-32.768z" />
<glyph unicode="&#xe953;" glyph-name="icon-staff-information" horiz-adv-x="1229" d="M1117.14-64h-1004.915c-66.733 0-112.225 57.471-112.225 125.803l0.698 773.306c0 68.855 54.281 124.892 121.036 124.892h246.431c54.868 0 123.587-32.109 159.81-74.718l32.866-38.95c18.668-22.019 81.651-49.368 109.673-49.368h446.629c31.84 0 53.886-9.851 76.482-33.678 22.548-23.848 35.197-49.027 35.175-82.648v-628.29c-0.001-68.309-44.929-116.349-111.66-116.349v0zM133.359 902.614c-40.947 0-74.25-34.392-74.25-76.638l-0.682-755.063c0-41.934 24.7-77.394 65.649-77.394h981.208c40.946 0 65.415 26.251 65.415 68.163v613.469c0 20.624-7.517 33.737-21.359 48.381-13.861 14.599-24.531 19.78-44.056 19.78h-436.091c-39.5 0-113.751 32.694-140.156 63.768l-32.087 38.041c-26.937 31.685-82.129 57.489-122.971 57.489l-240.619 0.001zM583.949 434.326h30.537v47.858h-410.074v-47.858h379.537zM457.437 297.589h20.358v47.858h-273.383v-47.858h253.025zM1058.026 116.911c-5.107 57.535-32.4 110.817-76.855 150.137-25.444 22.48-55.619 39.472-88.492 49.832 35.162 23.11 58.353 61.868 58.353 105.682 0 70.535-59.943 127.99-133.533 127.99s-133.449-57.375-133.449-127.99c0-43.894 23.107-82.652 58.353-105.682-32.567-10.191-62.706-27.042-88.408-49.832-44.455-39.32-71.664-92.602-76.855-150.137-1.256-14.123 9.628-26.561 24.446-27.765 14.735-1.204 27.711 9.228 28.967 23.431 8.205 92.201 90.417 164.421 187.113 164.421s178.909-72.22 187.113-164.421c1.172-13.401 12.893-23.512 26.623-23.512 0.753 0 1.507 0 2.344 0.080 14.567 1.204 25.535 13.642 24.279 27.765v0zM817.583 499.195c44.12 0 79.952-34.345 79.952-76.633s-35.832-76.633-79.952-76.633c-44.12 0-79.952 34.425-79.952 76.633s35.832 76.633 79.952 76.633z" />
<glyph unicode="&#xe954;" glyph-name="icon-superinduce" d="M511.999-64c-282.769 0-511.999 229.243-511.999 512.009s229.23 511.991 511.999 511.991c282.771 0 512.001-229.226 512.001-511.991s-229.23-512.009-512.001-512.009zM511.999 896.003c-247.426 0-447.998-200.573-447.998-447.995s200.573-447.997 447.998-447.997c247.426 0 447.998 200.576 447.998 447.997s-200.573 447.995-447.998 447.995zM703.999 416.003h-159.997v-159.999c0-17.663-14.327-31.993-32-31.993s-31.998 14.33-31.998 31.993v159.999h-160.002c-17.673 0-32 14.328-32 32.006 0 17.666 14.33 31.993 32 31.993h160.002v160.006c0 17.663 14.327 31.986 31.998 31.986 17.675 0 32-14.321 32-31.986v-160.006h159.997c17.675 0 32-14.328 32-31.993 0-17.678-14.325-32.006-32-32.006z" />
</font>
</defs>
</svg>
